<?xml version="1.0" encoding="utf-8"?>
<!-- Generator: Adobe Illustrator 26.0.1, SVG Export Plug-In . SVG Version: 6.00 Build 0)  -->
<svg version="1.1" id="Capa_1" xmlns="http://www.w3.org/2000/svg" xmlns:xlink="http://www.w3.org/1999/xlink" x="0px" y="0px"
	 viewBox="0 0 229.6 113" style="enable-background:new 0 0 229.6 113;" xml:space="preserve">
<style type="text/css">
	.st0{fill:#FFFFFF;}
	.st1{fill:#FFDA00;}
	.st2{fill:#CE0505;}
	.st3{fill:#CE0505;stroke:#CE0505;stroke-width:0.3;stroke-miterlimit:10;}
	.st4{fill:#FFFFFF;stroke:#FFFFFF;stroke-width:0.3;stroke-miterlimit:10;}
</style>
<path class="st0" d="M163,107c0.4,0.4,0.4,1.1,0.1,1.6c-0.1,0.2-0.3,0.4-0.6,0.5c-0.3,0.1-0.6,0.2-0.9,0.2h-1.8V104h1.8
	c0.4,0,0.9,0.1,1.2,0.4c0.3,0.3,0.4,0.6,0.4,1c0,0.3-0.1,0.6-0.3,0.8c-0.2,0.2-0.4,0.4-0.7,0.4C162.6,106.6,162.8,106.8,163,107z
	 M160.3,106.3h1.2c0.3,0,0.6-0.1,0.8-0.2c0.2-0.2,0.3-0.4,0.3-0.7c0-0.3-0.1-0.5-0.3-0.7c-0.2-0.2-0.5-0.3-0.9-0.2h-1.2L160.3,106.3
	z M162.5,108.6c0.2-0.2,0.3-0.5,0.3-0.8c0-0.3-0.1-0.6-0.3-0.8c-0.3-0.2-0.6-0.3-0.9-0.3h-1.2v2.1h1.3
	C161.9,108.9,162.2,108.8,162.5,108.6L162.5,108.6z"/>
<path class="st0" d="M165.1,109.1c-0.3-0.2-0.6-0.4-0.7-0.8c-0.2-0.3-0.3-0.7-0.3-1.1c0-0.4,0.1-0.8,0.3-1.1
	c0.2-0.3,0.4-0.6,0.8-0.7c0.3-0.2,0.7-0.3,1.1-0.3c0.4,0,0.7,0.1,1.1,0.3c0.3,0.2,0.6,0.4,0.7,0.7c0.2,0.3,0.3,0.7,0.3,1.1
	c0,0.4-0.1,0.8-0.3,1.1c-0.2,0.3-0.4,0.6-0.8,0.8c-0.3,0.2-0.7,0.3-1.1,0.3C165.8,109.3,165.4,109.3,165.1,109.1z M166.9,108.7
	c0.2-0.1,0.4-0.3,0.6-0.6c0.1-0.3,0.2-0.6,0.2-0.9c0-0.3-0.1-0.6-0.2-0.9c-0.1-0.2-0.3-0.4-0.6-0.6c-0.2-0.1-0.5-0.2-0.8-0.2
	c-0.3,0-0.5,0.1-0.8,0.2c-0.2,0.1-0.4,0.3-0.6,0.6c-0.1,0.3-0.2,0.6-0.2,0.9c0,0.3,0.1,0.6,0.2,0.9c0.1,0.2,0.3,0.4,0.6,0.6
	C165.9,108.9,166.4,108.9,166.9,108.7L166.9,108.7z"/>
<path class="st0" d="M171.9,105.3c0.3,0.2,0.5,0.4,0.6,0.7v-0.9h0.5v4.2c0,0.3-0.1,0.7-0.2,1c-0.2,0.3-0.4,0.5-0.7,0.7
	c-0.3,0.2-0.7,0.2-1,0.2c-0.5,0-0.9-0.1-1.3-0.4c-0.3-0.2-0.6-0.6-0.7-1h0.5c0.1,0.3,0.3,0.5,0.5,0.7c0.3,0.2,0.6,0.3,0.9,0.2
	c0.3,0,0.5-0.1,0.7-0.2c0.2-0.1,0.4-0.3,0.5-0.5c0.1-0.2,0.2-0.5,0.2-0.8v-1c-0.1,0.3-0.4,0.5-0.6,0.7c-0.3,0.2-0.6,0.3-1,0.3
	c-0.4,0-0.7-0.1-1-0.3c-0.3-0.2-0.5-0.4-0.7-0.8c-0.3-0.7-0.3-1.5,0-2.2c0.2-0.3,0.4-0.6,0.7-0.7c0.3-0.2,0.6-0.3,1-0.3
	C171.3,105.1,171.6,105.2,171.9,105.3z M172.4,106.3c-0.1-0.2-0.3-0.4-0.6-0.6c-0.5-0.3-1.1-0.3-1.6,0c-0.2,0.1-0.4,0.3-0.6,0.6
	c-0.3,0.6-0.3,1.2,0,1.8c0.1,0.2,0.3,0.4,0.6,0.6c0.5,0.3,1.1,0.3,1.6,0c0.2-0.1,0.4-0.3,0.6-0.6c0.1-0.3,0.2-0.6,0.2-0.9
	C172.6,106.9,172.5,106.6,172.4,106.3L172.4,106.3z"/>
<path class="st0" d="M175.1,109.1c-0.3-0.2-0.6-0.4-0.7-0.8c-0.2-0.3-0.3-0.7-0.3-1.1c0-0.4,0.1-0.8,0.3-1.1
	c0.2-0.3,0.4-0.6,0.8-0.7c0.3-0.2,0.7-0.3,1-0.3c0.4,0,0.7,0.1,1.1,0.3c0.3,0.2,0.6,0.4,0.7,0.7c0.2,0.3,0.3,0.7,0.3,1.1
	c0,0.4-0.1,0.8-0.3,1.1c-0.2,0.3-0.4,0.6-0.8,0.8c-0.3,0.2-0.7,0.3-1.1,0.3C175.7,109.3,175.4,109.2,175.1,109.1z M176.9,108.7
	c0.2-0.1,0.4-0.3,0.6-0.6c0.1-0.3,0.2-0.6,0.2-0.9c0-0.3-0.1-0.6-0.2-0.9c-0.1-0.2-0.3-0.4-0.6-0.6c-0.2-0.1-0.5-0.2-0.8-0.2
	c-0.3,0-0.5,0.1-0.8,0.2c-0.2,0.1-0.4,0.3-0.6,0.6c-0.1,0.3-0.2,0.6-0.2,0.9c0,0.3,0.1,0.6,0.2,0.9c0.1,0.2,0.3,0.4,0.6,0.6
	C175.8,108.9,176.4,108.9,176.9,108.7L176.9,108.7z"/>
<path class="st0" d="M179.9,105.6v2.6c0,0.2,0,0.4,0.1,0.5c0.1,0.1,0.3,0.2,0.5,0.1h0.5v0.5h-0.6c-0.3,0-0.6-0.1-0.8-0.3
	c-0.2-0.2-0.3-0.5-0.3-0.9v-2.6h-0.6v-0.4h0.6v-1h0.5v1h1.1v0.4H179.9z"/>
<path class="st0" d="M181.9,106.1c0.2-0.3,0.4-0.6,0.7-0.7c0.3-0.2,0.6-0.3,1-0.3c0.4,0,0.7,0.1,1,0.3c0.3,0.2,0.5,0.4,0.6,0.7v-0.9
	h0.5v4.1h-0.5v-0.9c-0.1,0.3-0.4,0.5-0.6,0.7c-0.3,0.2-0.6,0.3-1,0.3c-0.4,0-0.7-0.1-1-0.3c-0.3-0.2-0.5-0.4-0.7-0.8
	C181.5,107.6,181.5,106.8,181.9,106.1L181.9,106.1z M185,106.3c-0.1-0.2-0.3-0.4-0.6-0.6c-0.2-0.1-0.5-0.2-0.8-0.2
	c-0.3,0-0.5,0.1-0.8,0.2c-0.2,0.1-0.4,0.3-0.6,0.6c-0.3,0.6-0.3,1.2,0,1.8c0.1,0.2,0.3,0.4,0.6,0.6c0.5,0.3,1.1,0.3,1.6,0
	c0.2-0.1,0.4-0.3,0.6-0.6c0.1-0.3,0.2-0.6,0.2-0.9C185.2,106.9,185.2,106.6,185,106.3L185,106.3z M184.5,103.9l-1.6,0.9v-0.4l1.6-1
	V103.9z"/>
<path class="st1" d="M14.5,97.1c0.5-0.4,1.1-0.6,1.7-0.6c0.4,0,0.8,0.1,1.2,0.2c0.3,0.1,0.6,0.4,0.8,0.7c0.2,0.3,0.3,0.6,0.3,1
	c0,0.4-0.1,0.7-0.3,1c-0.2,0.2-0.4,0.4-0.7,0.5l0,0c0.3,0.1,0.6,0.3,0.9,0.6c0.2,0.3,0.3,0.7,0.3,1.1c0,0.4-0.1,0.7-0.3,1
	c-0.2,0.3-0.5,0.6-0.8,0.7c-0.4,0.2-0.8,0.3-1.2,0.2c-0.7,0-1.3-0.2-1.8-0.6c-0.5-0.4-0.7-1-0.7-1.7h1.6c0,0.2,0.1,0.5,0.2,0.7
	c0.2,0.2,0.4,0.3,0.7,0.2c0.2,0,0.4-0.1,0.6-0.2c0.1-0.2,0.2-0.4,0.2-0.6c0-0.3-0.1-0.5-0.3-0.7c-0.3-0.2-0.6-0.2-0.9-0.2h-0.3v-1.3
	h0.3c0.3,0,0.5,0,0.8-0.2c0.2-0.1,0.3-0.4,0.3-0.6c0-0.2-0.1-0.4-0.2-0.5c-0.1-0.1-0.3-0.2-0.5-0.2c-0.2,0-0.4,0.1-0.5,0.2
	c-0.1,0.2-0.2,0.3-0.2,0.5h-1.6C13.9,98.1,14.1,97.5,14.5,97.1z"/>
<path class="st1" d="M19.4,98.2v-1.5H22v6.9h-1.7v-5.4H19.4z"/>
<path class="st1" d="M23.3,98.4c0-0.3,0.1-0.7,0.3-0.9c0.2-0.3,0.5-0.5,0.8-0.7c0.9-0.3,1.8-0.3,2.6,0c0.3,0.1,0.6,0.4,0.8,0.7
	c0.2,0.3,0.3,0.6,0.3,0.9c0,0.3-0.1,0.6-0.2,0.9c-0.2,0.3-0.4,0.5-0.6,0.6c0.3,0.2,0.6,0.4,0.8,0.7c0.2,0.3,0.3,0.6,0.3,1
	c0,0.4-0.1,0.8-0.3,1.2c-0.2,0.3-0.5,0.6-0.9,0.7c-0.8,0.3-1.8,0.3-2.6,0c-0.4-0.2-0.7-0.4-0.9-0.7c-0.2-0.3-0.4-0.7-0.3-1.2
	c0-0.4,0.1-0.7,0.3-1c0.2-0.3,0.5-0.5,0.8-0.7C23.7,99.6,23.3,99.1,23.3,98.4z M25,100.8c-0.2,0.2-0.3,0.4-0.3,0.7
	c0,0.2,0.1,0.5,0.3,0.7c0.2,0.2,0.5,0.3,0.7,0.2c0.3,0,0.5-0.1,0.7-0.2c0.2-0.2,0.3-0.4,0.3-0.7c0-0.2-0.1-0.5-0.3-0.7
	c-0.2-0.2-0.4-0.3-0.7-0.2C25.5,100.6,25.2,100.7,25,100.8z M26.3,98.1c-0.2-0.1-0.4-0.2-0.6-0.2c-0.2,0-0.4,0.1-0.6,0.2
	c-0.2,0.2-0.2,0.4-0.2,0.6c0,0.2,0.1,0.4,0.2,0.6c0.2,0.1,0.4,0.2,0.6,0.2c0.4,0,0.8-0.3,0.8-0.7c0,0,0-0.1,0-0.1
	C26.5,98.4,26.5,98.2,26.3,98.1L26.3,98.1z"/>
<path class="st1" d="M31.3,102.4v-1.3l3-4.3h1.8v4.2h0.8v1.4h-0.8v1.2h-1.6v-1.2L31.3,102.4z M34.6,98.6L33,101h1.6L34.6,98.6z"/>
<path class="st1" d="M40.8,98c-0.4-0.3-1-0.2-1.2,0.2c0,0,0,0.1-0.1,0.1c-0.2,0.5-0.3,1-0.2,1.5c0.1-0.2,0.4-0.4,0.6-0.5
	c0.3-0.1,0.6-0.2,0.9-0.2c0.6,0,1.1,0.2,1.5,0.6c0.4,0.4,0.6,1,0.6,1.6c0,0.4-0.1,0.8-0.3,1.2c-0.2,0.3-0.5,0.6-0.8,0.8
	c-0.4,0.2-0.8,0.3-1.3,0.3c-0.8,0.1-1.5-0.3-2-0.9c-0.4-0.8-0.6-1.7-0.6-2.6c-0.1-0.9,0.1-1.9,0.6-2.7c0.4-0.6,1.2-0.9,1.9-0.9
	c0.4,0,0.8,0.1,1.2,0.3c0.3,0.2,0.6,0.4,0.7,0.7c0.2,0.3,0.3,0.6,0.3,1h-1.5C41.1,98.3,41,98.1,40.8,98z M39.6,100.6
	c-0.2,0.2-0.3,0.4-0.3,0.7c0,0.3,0.1,0.5,0.2,0.7c0.2,0.2,0.5,0.3,0.7,0.2c0.2,0,0.5-0.1,0.7-0.2c0.2-0.2,0.2-0.4,0.2-0.7
	c0-0.3-0.1-0.5-0.2-0.7c-0.2-0.2-0.4-0.3-0.7-0.2C40.1,100.4,39.8,100.5,39.6,100.6L39.6,100.6z"/>
<path class="st1" d="M46.3,102.3c0.3,0,0.6-0.2,0.7-0.4c0.2-0.5,0.2-1,0.2-1.4c-0.1,0.2-0.3,0.4-0.6,0.5c-0.3,0.1-0.5,0.2-0.8,0.2
	c-0.4,0-0.7-0.1-1.1-0.2c-0.3-0.2-0.6-0.4-0.7-0.8c-0.2-0.4-0.3-0.8-0.3-1.2c0-0.4,0.1-0.8,0.3-1.2c0.2-0.3,0.5-0.6,0.8-0.8
	c0.4-0.2,0.8-0.3,1.3-0.3c0.8-0.1,1.5,0.2,2,0.9c0.4,0.8,0.6,1.7,0.6,2.6c0,0.7-0.1,1.3-0.2,2c-0.1,0.5-0.4,0.9-0.8,1.2
	c-0.4,0.3-0.9,0.4-1.4,0.4c-0.4,0-0.9-0.1-1.2-0.3c-0.3-0.2-0.6-0.4-0.8-0.8c-0.2-0.3-0.3-0.6-0.3-1h1.5
	C45.5,102,45.8,102.4,46.3,102.3z M46.8,99.5c0.2-0.2,0.3-0.4,0.2-0.7c0-0.3-0.1-0.5-0.2-0.7c-0.2-0.2-0.4-0.3-0.7-0.2
	c-0.2,0-0.5,0.1-0.7,0.3c-0.4,0.3-0.4,0.9,0,1.3c0.2,0.2,0.5,0.3,0.7,0.3C46.4,99.8,46.7,99.7,46.8,99.5z"/>
<path class="st1" d="M51.8,98.4c0-0.3,0.1-0.7,0.3-0.9c0.2-0.3,0.5-0.5,0.8-0.7c0.4-0.2,0.9-0.3,1.3-0.2c0.5,0,0.9,0.1,1.3,0.2
	c0.3,0.1,0.6,0.4,0.8,0.7c0.2,0.3,0.3,0.6,0.3,0.9c0,0.3-0.1,0.6-0.2,0.9c-0.2,0.3-0.4,0.5-0.7,0.6c0.3,0.2,0.6,0.4,0.8,0.7
	c0.2,0.3,0.3,0.6,0.3,1c0,0.4-0.1,0.8-0.3,1.2c-0.2,0.3-0.6,0.6-0.9,0.7c-0.4,0.2-0.8,0.3-1.3,0.3c-0.4,0-0.9-0.1-1.3-0.3
	c-0.4-0.2-0.7-0.4-0.9-0.7c-0.2-0.3-0.4-0.7-0.3-1.2c0-0.4,0.1-0.7,0.3-1c0.2-0.3,0.5-0.5,0.8-0.7C52.1,99.6,51.7,99.1,51.8,98.4z
	 M53.4,100.8c-0.2,0.2-0.3,0.4-0.3,0.7c0,0.2,0.1,0.5,0.3,0.7c0.2,0.2,0.5,0.3,0.7,0.2c0.3,0,0.5-0.1,0.7-0.2
	c0.2-0.2,0.3-0.4,0.3-0.7c0-0.2-0.1-0.5-0.3-0.7c-0.2-0.2-0.5-0.3-0.7-0.2C53.9,100.6,53.6,100.7,53.4,100.8z M54.7,98.1
	c-0.3-0.3-0.8-0.3-1.2,0c-0.2,0.2-0.2,0.4-0.2,0.6c0,0.2,0.1,0.4,0.2,0.6c0.2,0.1,0.4,0.2,0.6,0.2c0.2,0,0.4-0.1,0.6-0.2
	c0.2-0.2,0.2-0.4,0.2-0.6C55,98.4,54.9,98.2,54.7,98.1z"/>
<path class="st1" d="M58.4,97.1c0.5-0.4,1.1-0.6,1.7-0.6c0.4,0,0.8,0.1,1.2,0.2c0.3,0.1,0.6,0.4,0.8,0.7c0.2,0.3,0.3,0.6,0.3,1
	c0,0.4-0.1,0.7-0.3,1c-0.2,0.2-0.4,0.4-0.7,0.5l0,0c0.3,0.1,0.6,0.3,0.9,0.6c0.2,0.3,0.3,0.7,0.3,1.1c0,0.4-0.1,0.7-0.3,1
	c-0.2,0.3-0.5,0.6-0.8,0.7c-1,0.4-2.1,0.3-3-0.3c-0.5-0.4-0.7-1-0.7-1.7h1.6c0,0.2,0.1,0.5,0.2,0.7c0.2,0.2,0.4,0.3,0.7,0.2
	c0.2,0,0.4-0.1,0.6-0.2c0.1-0.2,0.2-0.4,0.2-0.6c0-0.3-0.1-0.5-0.3-0.7c-0.3-0.2-0.6-0.2-0.9-0.2h-0.3v-1.3h0.3c0.3,0,0.5,0,0.8-0.2
	c0.2-0.1,0.3-0.4,0.3-0.6c0-0.2-0.1-0.4-0.2-0.5c-0.2-0.2-0.4-0.2-0.6-0.2c-0.2,0-0.4,0.1-0.5,0.2c-0.1,0.2-0.2,0.3-0.2,0.5h-1.6
	C57.7,98.1,57.9,97.5,58.4,97.1z"/>
<path class="st1" d="M63.4,102.4v-1.3l3-4.3h1.8v4.2H69v1.4h-0.8v1.2h-1.6v-1.2L63.4,102.4z M66.7,98.6l-1.6,2.4h1.6V98.6z"/>
<path class="st1" d="M69.6,98.2v-1.5h2.6v6.9h-1.7v-5.4H69.6z"/>
<path class="st0" d="M15.5,107.8c0.3-0.3,0.6-0.8,0.6-1.2c0-0.2-0.1-0.5-0.2-0.7c-0.2-0.2-0.4-0.3-0.6-0.2c-0.3,0-0.5,0.1-0.7,0.3
	c-0.2,0.2-0.3,0.5-0.3,0.7h-0.4c0-0.4,0.1-0.7,0.4-1c0.3-0.3,0.6-0.4,1-0.4c0.3,0,0.7,0.1,0.9,0.3c0.2,0.2,0.4,0.6,0.4,0.9
	c0,0.5-0.2,1-0.6,1.4c-0.4,0.5-0.9,0.9-1.4,1.3h2.1v0.3h-2.8v-0.3C14.4,108.8,15,108.3,15.5,107.8z"/>
<path class="st0" d="M19.8,105.7l-1.6,3.8h-0.4l1.6-3.8H17v-0.3h2.7L19.8,105.7z"/>
<path class="st0" d="M20.2,108.5v-0.3l2.1-2.8h0.5v2.8h0.6v0.3h-0.6v1h-0.4v-1L20.2,108.5z M22.4,105.8l-1.8,2.4h1.8V105.8z"/>
<path class="st0" d="M24.2,105.8c0.2-0.4,0.7-0.6,1.1-0.6c0.4,0,0.9,0.2,1.1,0.6c0.2,0.5,0.3,1,0.3,1.6c0,0.5-0.1,1.1-0.3,1.6
	c-0.2,0.4-0.7,0.6-1.1,0.6c-0.4,0-0.9-0.2-1.1-0.6c-0.2-0.5-0.3-1-0.3-1.6C23.9,106.9,24,106.3,24.2,105.8z M26.2,106.5
	c0-0.2-0.1-0.4-0.3-0.6c-0.2-0.2-0.4-0.2-0.6-0.2c-0.2,0-0.5,0.1-0.6,0.2c-0.2,0.2-0.3,0.4-0.3,0.6c-0.1,0.3-0.1,0.6-0.1,0.9
	c0,0.3,0,0.6,0.1,0.9c0,0.2,0.1,0.4,0.3,0.6c0.2,0.2,0.4,0.2,0.6,0.2c0.2,0,0.5-0.1,0.6-0.2c0.2-0.2,0.3-0.4,0.3-0.6
	c0.1-0.3,0.1-0.6,0.1-0.9C26.3,107.1,26.3,106.8,26.2,106.5L26.2,106.5z"/>
<path class="st0" d="M27.8,105.8c0.2-0.4,0.7-0.6,1.1-0.6c0.4,0,0.9,0.2,1.1,0.6c0.2,0.5,0.3,1,0.3,1.6c0,0.6-0.1,1.1-0.3,1.6
	c-0.2,0.4-0.7,0.6-1.1,0.6c-0.4,0-0.9-0.2-1.1-0.6c-0.2-0.5-0.3-1-0.3-1.6C27.4,106.9,27.6,106.3,27.8,105.8z M29.8,106.5
	c0-0.2-0.1-0.4-0.3-0.6c-0.4-0.3-0.9-0.3-1.3,0c-0.2,0.2-0.3,0.4-0.3,0.6c-0.1,0.3-0.1,0.6-0.1,0.9c0,0.3,0,0.6,0.1,0.9
	c0,0.2,0.1,0.4,0.3,0.6c0.4,0.3,0.9,0.3,1.3,0c0.2-0.2,0.3-0.4,0.3-0.6c0.1-0.3,0.1-0.6,0.1-0.9C29.9,107.1,29.9,106.8,29.8,106.5
	L29.8,106.5z"/>
<path class="st0" d="M31.3,107c-0.1-0.2-0.2-0.4-0.2-0.6c0-0.4,0.2-0.8,0.6-0.9c0.2-0.1,0.5-0.1,0.7-0.1c0.3,0,0.5,0,0.7,0.1
	c0.2,0.1,0.4,0.2,0.5,0.4c0.1,0.2,0.2,0.4,0.2,0.6c0,0.2-0.1,0.4-0.2,0.6c-0.1,0.2-0.3,0.3-0.5,0.4c0.2,0.1,0.5,0.2,0.6,0.4
	c0.2,0.2,0.2,0.4,0.2,0.7c0,0.2-0.1,0.5-0.2,0.7c-0.1,0.2-0.3,0.3-0.5,0.4c-0.5,0.2-1.1,0.2-1.5,0c-0.2-0.1-0.4-0.2-0.5-0.4
	c-0.1-0.2-0.2-0.4-0.2-0.7c0-0.2,0.1-0.5,0.2-0.7c0.2-0.2,0.4-0.3,0.6-0.4C31.7,107.3,31.5,107.2,31.3,107z M31.7,107.8
	c-0.2,0.2-0.3,0.4-0.3,0.7c0,0.3,0.1,0.5,0.3,0.7c0.5,0.3,1.1,0.3,1.6,0c0.2-0.2,0.3-0.4,0.3-0.7c0-0.3-0.1-0.5-0.3-0.6
	c-0.2-0.2-0.5-0.2-0.8-0.2C32.2,107.5,32,107.6,31.7,107.8L31.7,107.8z M33.2,105.8c-0.2-0.2-0.5-0.2-0.7-0.2
	c-0.3,0-0.5,0.1-0.7,0.2c-0.2,0.1-0.3,0.4-0.3,0.6c0,0.2,0.1,0.4,0.3,0.6c0.2,0.1,0.4,0.2,0.7,0.2c0.3,0,0.5-0.1,0.7-0.2
	c0.2-0.1,0.3-0.4,0.3-0.6C33.5,106.2,33.4,106,33.2,105.8L33.2,105.8z"/>
<path class="st0" d="M35.1,105.6c0.3-0.2,0.6-0.3,1-0.3c0.2,0,0.5,0,0.7,0.1c0.2,0.1,0.3,0.2,0.4,0.4c0.1,0.2,0.1,0.4,0.1,0.5
	c0,0.2-0.1,0.5-0.2,0.6c-0.2,0.2-0.4,0.3-0.6,0.3l0,0c0.2,0,0.5,0.2,0.7,0.4c0.4,0.5,0.3,1.1-0.1,1.5c-0.3,0.2-0.6,0.4-1,0.3
	c-0.4,0-0.7-0.1-1-0.3c-0.3-0.2-0.4-0.6-0.5-0.9H35c0,0.2,0.1,0.5,0.3,0.6c0.2,0.2,0.5,0.3,0.7,0.2c0.2,0,0.5-0.1,0.7-0.2
	c0.2-0.2,0.2-0.4,0.2-0.6c0-0.6-0.4-0.9-1.3-0.9h-0.1v-0.3h0.1c0.8,0,1.2-0.2,1.2-0.8c0-0.2-0.1-0.4-0.2-0.5
	c-0.2-0.1-0.4-0.2-0.6-0.2c-0.2,0-0.5,0.1-0.7,0.2c-0.2,0.1-0.3,0.4-0.3,0.6h-0.4C34.7,106.1,34.8,105.8,35.1,105.6z"/>
<path class="st0" d="M41.7,107.2v0.3h-2.3v-0.3H41.7z"/>
<path class="st0" d="M44.7,105.6c0.3-0.2,0.6-0.3,1-0.3c0.2,0,0.5,0,0.7,0.1c0.2,0.1,0.3,0.2,0.4,0.4c0.1,0.2,0.1,0.4,0.1,0.5
	c0,0.2-0.1,0.5-0.2,0.6c-0.2,0.2-0.4,0.3-0.6,0.3l0,0c0.3,0.1,0.5,0.2,0.7,0.4c0.4,0.5,0.3,1.1-0.1,1.5c-0.3,0.2-0.6,0.3-1,0.3
	c-0.4,0-0.7-0.1-1-0.3c-0.3-0.2-0.4-0.6-0.5-0.9h0.4c0,0.2,0.1,0.5,0.3,0.6c0.2,0.2,0.5,0.3,0.7,0.2c0.2,0,0.5-0.1,0.7-0.2
	c0.2-0.2,0.2-0.4,0.2-0.6c0-0.6-0.4-0.9-1.3-0.9h-0.1v-0.3h0.1c0.8,0,1.2-0.2,1.2-0.8c0-0.2-0.1-0.4-0.2-0.5
	c-0.2-0.1-0.4-0.2-0.6-0.2c-0.2,0-0.5,0.1-0.7,0.2c-0.2,0.1-0.3,0.4-0.3,0.6h-0.4C44.3,106.1,44.4,105.8,44.7,105.6z"/>
<path class="st0" d="M47.5,105.7v-0.4h1v4.2h-0.4v-3.8L47.5,105.7z"/>
<path class="st0" d="M49.2,105.7v-0.4h1v4.2h-0.4v-3.8L49.2,105.7z"/>
<path class="st0" d="M51.3,107c-0.1-0.2-0.2-0.4-0.2-0.6c0-0.2,0.1-0.4,0.2-0.6c0.1-0.2,0.3-0.3,0.5-0.4c0.2-0.1,0.5-0.1,0.7-0.1
	c0.3,0,0.5,0,0.7,0.1c0.2,0.1,0.4,0.2,0.5,0.4c0.1,0.2,0.2,0.4,0.2,0.6c0,0.2-0.1,0.4-0.2,0.6c-0.1,0.2-0.3,0.3-0.5,0.4
	c0.2,0.1,0.5,0.2,0.6,0.4c0.2,0.2,0.2,0.4,0.2,0.7c0,0.2-0.1,0.5-0.2,0.7c-0.1,0.2-0.3,0.3-0.5,0.4c-0.2,0.1-0.5,0.2-0.8,0.2
	c-0.3,0-0.5,0-0.8-0.2c-0.2-0.1-0.4-0.2-0.5-0.4c-0.1-0.2-0.2-0.4-0.2-0.7c0-0.2,0.1-0.5,0.2-0.7c0.2-0.2,0.4-0.3,0.6-0.4
	C51.7,107.3,51.5,107.2,51.3,107z M51.7,107.8c-0.2,0.2-0.3,0.4-0.3,0.7c0,0.3,0.1,0.5,0.3,0.7c0.2,0.2,0.5,0.3,0.8,0.2
	c0.3,0,0.6-0.1,0.8-0.2c0.2-0.2,0.3-0.4,0.3-0.7c0-0.3-0.1-0.5-0.3-0.6c-0.2-0.2-0.5-0.2-0.8-0.2C52.2,107.5,52,107.6,51.7,107.8
	L51.7,107.8z M53.2,105.8c-0.2-0.1-0.5-0.2-0.7-0.2c-0.3,0-0.5,0.1-0.7,0.2c-0.2,0.1-0.3,0.4-0.3,0.6c0,0.2,0.1,0.4,0.3,0.6
	c0.2,0.1,0.4,0.2,0.7,0.2c0.3,0,0.5-0.1,0.7-0.2c0.2-0.1,0.3-0.4,0.3-0.6C53.5,106.2,53.4,106,53.2,105.8L53.2,105.8z"/>
<path class="st0" d="M54.5,105.7v-0.4h1v4.2h-0.4v-3.8L54.5,105.7z"/>
<path class="st0" d="M56.7,105.8c0.5-0.6,1.3-0.7,1.9-0.3c0.1,0.1,0.2,0.2,0.3,0.3c0.2,0.5,0.3,1,0.3,1.6c0,0.5-0.1,1.1-0.3,1.6
	c-0.2,0.4-0.7,0.6-1.1,0.6c-0.4,0-0.9-0.2-1.1-0.6c-0.2-0.5-0.3-1-0.3-1.6C56.4,106.9,56.5,106.3,56.7,105.8z M58.7,106.5
	c0-0.2-0.1-0.4-0.3-0.6c-0.2-0.2-0.4-0.2-0.6-0.2c-0.2,0-0.5,0.1-0.6,0.2c-0.2,0.2-0.3,0.4-0.3,0.6c-0.1,0.3-0.1,0.6-0.1,0.9
	c0,0.3,0,0.6,0.1,0.9c0,0.2,0.1,0.4,0.3,0.6c0.2,0.2,0.4,0.2,0.6,0.2c0.2,0,0.5-0.1,0.6-0.2c0.2-0.2,0.3-0.4,0.3-0.6
	c0.1-0.3,0.1-0.6,0.1-0.9C58.8,107.1,58.8,106.8,58.7,106.5L58.7,106.5z"/>
<path class="st0" d="M61.5,107.8c0.3-0.3,0.6-0.8,0.6-1.2c0-0.2-0.1-0.5-0.2-0.7c-0.2-0.2-0.4-0.3-0.7-0.2c-0.3,0-0.5,0.1-0.7,0.3
	c-0.2,0.2-0.3,0.5-0.3,0.7h-0.4c0-0.4,0.1-0.7,0.4-1c0.5-0.5,1.3-0.5,1.9,0c0.2,0.2,0.4,0.6,0.3,0.9c0,0.5-0.2,1-0.6,1.4
	c-0.4,0.5-0.9,0.9-1.4,1.3h2.2v0.3h-2.8v-0.3C60.5,108.8,61,108.3,61.5,107.8z"/>
<path class="st0" d="M64.9,107.8c0.3-0.3,0.6-0.8,0.6-1.2c0-0.2-0.1-0.5-0.2-0.7c-0.2-0.2-0.4-0.3-0.7-0.2c-0.3,0-0.5,0.1-0.7,0.3
	c-0.2,0.2-0.3,0.5-0.3,0.7h-0.4c0-0.4,0.1-0.7,0.4-1c0.3-0.3,0.6-0.4,1-0.4c0.3,0,0.7,0.1,0.9,0.3c0.2,0.2,0.4,0.6,0.3,0.9
	c0,0.5-0.2,1-0.6,1.4c-0.4,0.5-0.9,0.9-1.4,1.3H66v0.3h-2.8v-0.3C63.8,108.8,64.4,108.3,64.9,107.8z"/>
<path class="st0" d="M67,105.6c0.3-0.2,0.6-0.3,0.9-0.3c0.2,0,0.5,0,0.7,0.1c0.2,0.1,0.3,0.2,0.4,0.4c0.1,0.2,0.1,0.4,0.1,0.5
	c0,0.2,0,0.5-0.2,0.7c-0.2,0.2-0.4,0.3-0.6,0.3l0,0c0.2,0,0.5,0.2,0.7,0.4c0.2,0.2,0.3,0.5,0.2,0.7c0,0.3-0.1,0.6-0.3,0.8
	c-0.3,0.2-0.6,0.4-1,0.3c-0.4,0-0.7-0.1-1-0.3c-0.3-0.2-0.4-0.6-0.4-0.9h0.4c0,0.2,0.1,0.5,0.3,0.6c0.2,0.2,0.5,0.3,0.7,0.2
	c0.2,0,0.5-0.1,0.7-0.2c0.2-0.2,0.2-0.4,0.2-0.6c0-0.6-0.4-0.9-1.3-0.9h-0.1v-0.3h0.1c0.8,0,1.2-0.2,1.2-0.8c0-0.2-0.1-0.4-0.2-0.5
	c-0.2-0.1-0.4-0.2-0.6-0.2c-0.2,0-0.5,0.1-0.7,0.2c-0.2,0.1-0.3,0.4-0.3,0.6h-0.4C66.6,106.1,66.7,105.8,67,105.6z"/>
<path class="st0" d="M70.8,109c0.2,0.1,0.4,0.2,0.6,0.2c0.3,0,0.6-0.1,0.8-0.4c0.2-0.4,0.3-0.9,0.2-1.4c-0.1,0.2-0.2,0.4-0.4,0.5
	c-0.2,0.1-0.5,0.2-0.7,0.2c-0.4,0-0.7-0.1-1-0.4c-0.3-0.3-0.4-0.6-0.4-1c0-0.2,0.1-0.5,0.2-0.7c0.1-0.2,0.3-0.4,0.4-0.5
	c0.2-0.1,0.5-0.2,0.8-0.2c0.5,0,0.9,0.2,1.2,0.5c0.2,0.5,0.4,1,0.3,1.5c0,0.6-0.1,1.1-0.3,1.6c-0.2,0.4-0.7,0.6-1.1,0.6
	c-0.3,0-0.7-0.1-0.9-0.3c-0.2-0.2-0.4-0.5-0.4-0.8h0.4C70.6,108.7,70.7,108.9,70.8,109z M72,107.6c0.3-0.2,0.5-0.5,0.5-0.9
	c0-0.3-0.1-0.6-0.3-0.8c-0.2-0.2-0.5-0.3-0.8-0.3c-0.3,0-0.5,0.1-0.7,0.3c-0.2,0.2-0.3,0.5-0.3,0.7c0,0.3,0.1,0.6,0.3,0.8
	c0.2,0.2,0.5,0.3,0.8,0.3C71.7,107.7,71.8,107.6,72,107.6z"/>
<path class="st1" d="M4.8,93.1L4.8,93.1c2.6,0,4.8,2.1,4.8,4.8v9.9c0,2.6-2.1,4.8-4.8,4.8h0c-2.6,0-4.8-2.1-4.8-4.8v-9.9
	C0,95.3,2.1,93.1,4.8,93.1z"/>
<path class="st2" d="M8.3,103.1v0.1l0,0H7.8V103l-0.1-0.6c0-0.1,0-0.1,0-0.2c0-0.1-0.1-0.2-0.1-0.3l0,0l-0.2-0.3l-0.1-0.2v-0.1
	c-0.2-0.3-0.5-0.6-0.8-0.8c-0.1,0-0.1-0.1-0.2-0.1c-0.1-0.1-0.2-0.1-0.3-0.2l0,0c-0.2-0.1-0.4-0.1-0.5-0.2C5.1,100,4.9,100,4.7,100
	l0,0v-0.4c0-0.1,0-0.1,0.1-0.1H5c0,0,0.1,0,0.1,0c0,0,0,0,0,0c0.3,0,0.5,0.1,0.8,0.2c0.7,0.3,1.3,0.7,1.7,1.3l0,0l0.1,0.1
	c0.1,0.1,0.1,0.2,0.2,0.3c0.1,0.2,0.3,0.5,0.3,0.8c0,0,0,0.1,0,0.1c0,0.2,0.1,0.4,0.1,0.5L8.3,103.1L8.3,103.1z"/>
<path class="st2" d="M0.6,101.1L0.6,101.1c0-0.1,0-0.2,0-0.2c0-0.1,0.1-0.1,0.1-0.1l0.4-0.4l0.2-0.1c0.1,0,0.2-0.1,0.2-0.1h0.1H2
	h0.2c0.3,0.1,0.5,0.3,0.6,0.5c0,0.1,0.1,0.2,0.1,0.3c0.1,0.2,0.1,0.5,0.2,0.7c0.1,0.2,0,0.5-0.1,0.7c0,0.1-0.1,0.1-0.1,0.2l-0.3,0.2
	c0,0,0,0.1,0,0.2l0.1,0.3c0.1,0.4,0.3,0.7,0.6,1c0,0,0.1,0.1,0.1,0.1c0.3,0.3,0.6,0.6,1,0.8l0.4,0.2c0.1,0.1,0.2,0.1,0.3,0.1
	c0,0,0.1,0,0.1,0l0.3-0.3c0.2-0.2,0.4-0.3,0.7-0.3c0.1,0,0.2,0,0.3,0.1l0,0L7,105h0.1c0.3,0.1,0.5,0.4,0.6,0.7c0,0,0,0.1,0,0.1v0.4
	c0,0.2-0.1,0.3-0.3,0.4L7.1,107c0,0.1-0.1,0.1-0.2,0.1c-0.1,0-0.2,0.1-0.3,0.1H6.3c-0.2,0-0.3,0-0.5,0c-0.2,0-0.3,0-0.5-0.1
	c-0.3-0.1-0.6-0.2-0.9-0.3H4.3l-0.2-0.1l-0.4-0.2c-0.2-0.1-0.4-0.2-0.5-0.3l-0.5-0.4l-0.5-0.4L1.9,105l-0.1-0.1c0,0,0,0,0-0.1
	s-0.2-0.3-0.4-0.5l-0.2-0.4l-0.1-0.1c-0.1-0.1-0.1-0.3-0.2-0.4c-0.1-0.2-0.1-0.4-0.2-0.6v-0.1c0-0.1,0-0.2,0-0.2
	c-0.1-0.1,0-0.1,0-0.1s0-0.3-0.1-0.4v-0.6L0.6,101.1z"/>
<path class="st2" d="M4.4,101.4v-0.4l0,0h0.4c0,0,0.1,0,0.1,0c0.2,0,0.3,0.1,0.5,0.2c0.7,0.3,1.1,0.9,1.3,1.6l0,0c0,0,0,0.1,0,0.1
	c0,0,0,0,0,0v0.3c0,0.1,0,0.1-0.1,0.1H6.3v-0.3c0-0.1,0-0.2,0-0.2c-0.1-0.3-0.3-0.6-0.5-0.8c-0.2-0.2-0.5-0.4-0.8-0.4
	c-0.1,0-0.1,0-0.2,0L4.4,101.4L4.4,101.4z"/>
<path class="st2" d="M4.5,102.8C4.5,102.8,4.4,102.8,4.5,102.8l-0.1-0.5c0.1,0,0.3,0,0.4,0.1c0,0,0.1,0,0.1,0s0,0,0.1,0
	c0.1,0.1,0.2,0.1,0.2,0.2l0.1,0.2c0,0.1,0.1,0.2,0.1,0.3v0.1H5c-0.1,0-0.1,0-0.1-0.1c0-0.2-0.2-0.4-0.4-0.4l0,0L4.5,102.8z"/>
<path class="st1" d="M194.4,93.2L194.4,93.2c2.7,0,4.9,2.2,4.9,4.9v10.1c0,2.7-2.2,4.9-4.9,4.9h0c-2.7,0-4.9-2.2-4.9-4.9V98
	C189.6,95.3,191.7,93.2,194.4,93.2z"/>
<path class="st2" d="M196.2,100.1c-0.3-0.3-0.8-0.5-1.2-0.6c-0.1,0-0.3,0-0.4,0H194c-0.2,0-0.4,0-0.6,0.1c-1.1,0.4-1.8,1.5-1.9,2.6
	c0,0.6,0.1,1.1,0.4,1.6c0.5,1,1.1,1.8,1.9,2.5c0.1,0.1,0.3,0.2,0.4,0.2h0.2c0.1,0,0.2-0.1,0.3-0.2c0.2-0.2,0.4-0.4,0.7-0.6
	c0.4-0.5,0.8-1,1.1-1.5c0.4-0.6,0.6-1.2,0.6-1.9C197.2,101.5,196.9,100.6,196.2,100.1L196.2,100.1z M194.4,103.6
	c-0.8,0-1.4-0.6-1.4-1.4c0-0.8,0.6-1.4,1.4-1.4c0.8,0,1.4,0.6,1.4,1.4C195.8,103,195.2,103.6,194.4,103.6
	C194.4,103.6,194.4,103.6,194.4,103.6L194.4,103.6z"/>
<path class="st1" d="M7.8,50.5h66c4.2,0,7.7,3.4,7.7,7.6l0,0c0,4.2-3.4,7.6-7.7,7.6h-66c-4.2,0-7.7-3.4-7.7-7.6l0,0
	C0.2,53.9,3.6,50.5,7.8,50.5z"/>
<path class="st0" d="M1.1,14.1c0.4-4.6,0.4-9.3,0-13.9h3.6c1.8,0,3.5-0.4,4.8,1.6c1.7,2.5,0.9,8.5,0,10.3c-0.9,1.6-2.6,2.2-4.7,2.1
	L1.1,14.1z M4.7,11.7c0.8,0.1,1.6-0.4,1.9-1.2c0.6-1.2,0.7-4.9,0.3-6.2c-0.2-1-1.2-1.7-2.2-1.6V11.7z"/>
<path class="st0" d="M11.2,8.9c0-2.8,1.5-5.2,4.7-5.2s4.7,2.4,4.7,5.2s-1.5,5.3-4.7,5.3S11.2,11.7,11.2,8.9z M17.2,8.9
	c0-1.3-0.4-2.8-1.3-2.8s-1.3,1.5-1.3,2.8s0.4,3,1.3,3S17.2,10.3,17.2,8.9L17.2,8.9z"/>
<path class="st0" d="M24.5,14.1H21c0.4-3.4,0.4-6.8,0-10.2h3.5v1C25.2,4.2,26,3.8,27,3.8c2.2,0,3.2,1.9,3.2,4.6v5.7h-3.6
	c0.2-1.8,0.3-3.5,0.3-5.3c0-1.7-0.3-2.4-0.9-2.4c-0.8,0.1-1.4,0.7-1.4,1.5V14.1z"/>
<path class="st0" d="M30.9,9.6c0-5.8,4-6.3,5.7-5.1V0.2h3.5c-0.4,4.6-0.4,9.3,0,13.9h-3.5v-1.5c-0.4,1-1.3,1.6-2.3,1.7
	C32.6,14.2,30.9,12.7,30.9,9.6z M36.6,9.8v-3c-0.3-0.8-2.4-1.1-2.4,2.3c0,1.3,0.4,2.2,1.1,2.2C36,11.1,36.5,10.5,36.6,9.8z"/>
<path class="st0" d="M40.8,9.2c0-3,1.6-5.6,4.5-5.6s4.1,1.9,4.1,3.5c0,2.6-2.4,3.6-5,3.3c0.1,0.6,0.6,1,1.2,0.9
	c0.7,0,1.4-0.3,1.8-0.9l1.7,1.4c-0.7,1.5-2.2,2.4-3.9,2.3C42.3,14.3,40.8,12,40.8,9.2z M46.3,7.3c0-0.6-0.3-1-0.8-1
	c-0.9,0-1.2,1.3-1.2,2.6c0.9,0.1,1.8-0.5,2-1.4C46.3,7.5,46.3,7.4,46.3,7.3z"/>
<path class="st0" d="M58.1,14.1h-3.6c0.4-4.6,0.4-9.3,0-13.9h3.6V14.1z"/>
<path class="st0" d="M59,11.4c0-2.9,3.2-3.4,6-2.7V8.4c0.1-1.2,0.2-2.3-0.6-2.3s-0.9,1.2-1.1,1.9l-2.7-0.5c0-1.3,0.1-3.8,3.3-3.8
	c2.8,0,4.5,1.5,4.2,4.3c-0.2,2.1-0.6,3.6,0.3,3.6c0.2,0,0.4,0,0.6-0.1l0.4,1.9c-0.7,0.5-1.5,0.8-2.4,0.8c-0.9,0-1.7-0.6-2-1.4
	c-0.7,1-1.9,1.5-3.1,1.4C60.5,14.3,59.1,13.1,59,11.4C59,11.5,59,11.5,59,11.4z M64.9,10.9c0-0.2,0-0.3,0-0.5
	c-1.1-0.3-2.9-0.2-2.9,0.7c0,0.4,0.3,0.6,0.9,0.6C63.6,11.7,64.3,11.4,64.9,10.9L64.9,10.9z"/>
<path class="st0" d="M73.5,9.3c0-3.2,1.5-5.6,4.5-5.6c3.9,0,4.7,3.2,3.9,5.9l-3.2-0.3c0.3-1.1,0.4-2.9-0.6-2.9
	c-0.8,0-1.1,1.3-1.1,2.7c0,1.2,0.3,2.4,1.1,2.4s1.1-0.8,1.2-1.2l3,0.3c-0.3,2.2-2.2,3.8-4.4,3.8C74.8,14.3,73.5,12.1,73.5,9.3z"/>
<path class="st0" d="M82.7,11.4c0-2.9,3.2-3.4,6-2.7V8.4c0.1-1.2,0.2-2.3-0.6-2.3s-0.9,1.2-1.1,1.9l-2.8-0.5c0-1.3,0.1-3.8,3.3-3.8
	c2.8,0,4.5,1.5,4.2,4.3c-0.2,2.1-0.6,3.6,0.3,3.6c0.2,0,0.4,0,0.6-0.1l0.4,1.9c-0.7,0.5-1.5,0.8-2.4,0.8c-0.9,0-1.7-0.6-2-1.4
	c-0.7,1-1.9,1.5-3.1,1.4c-1.6,0.1-3-1.1-3.1-2.7C82.7,11.5,82.7,11.5,82.7,11.4z M88.6,10.9c0-0.2,0-0.3,0-0.5
	c-1.1-0.3-2.9-0.2-2.9,0.7c0,0.4,0.3,0.6,0.9,0.6C87.4,11.7,88.1,11.4,88.6,10.9z"/>
<path class="st0" d="M97.6,14.1h-3.6c0.4-4.6,0.4-9.3,0-13.9h3.6V14.1z"/>
<path class="st0" d="M98.7,1.5c0-0.8,0.5-1.5,2.1-1.5s2.1,0.7,2.1,1.5S102.4,3,100.8,3S98.7,2.2,98.7,1.5z M98.9,14.1
	c0.3-3.4,0.3-6.8,0-10.2h3.8c-0.2,3.1-0.2,7.1,0,10.2H98.9z"/>
<path class="st0" d="M103.5,9.6c0-5.8,4-6.3,5.7-5.1V0.2h3.5c-0.4,4.6-0.4,9.3,0,13.9h-3.5v-1.5c-0.4,1-1.3,1.6-2.3,1.7
	C105.2,14.2,103.5,12.7,103.5,9.6z M109.2,9.8v-3c-0.3-0.8-2.4-1.1-2.4,2.3c0,1.3,0.4,2.2,1.1,2.2C108.6,11.2,109.2,10.5,109.2,9.8z
	"/>
<path class="st0" d="M113.3,11.4c0-2.9,3.2-3.4,6-2.7V8.4c0.1-1.2,0.2-2.3-0.6-2.3s-0.9,1.2-1.1,1.9l-2.8-0.5c0-1.3,0.1-3.8,3.3-3.8
	c2.8,0,4.4,1.5,4.2,4.3c-0.2,2.1-0.6,3.6,0.3,3.6c0.2,0,0.4,0,0.6-0.1l0.4,1.9c-0.7,0.5-1.5,0.8-2.4,0.8c-0.9,0-1.7-0.6-2-1.4
	c-0.7,1-1.9,1.5-3.1,1.4c-1.6,0.1-3-1.1-3.1-2.7C113.3,11.5,113.3,11.5,113.3,11.4z M119.2,10.9c0-0.2,0-0.3,0-0.5
	c-1.1-0.3-2.9-0.2-2.9,0.7c0,0.4,0.3,0.6,0.9,0.6C118,11.7,118.7,11.4,119.2,10.9z"/>
<path class="st0" d="M123.8,9.6c0-5.8,4-6.3,5.7-5.1V0.2h3.5c-0.4,4.6-0.4,9.3,0,13.9h-3.5v-1.5c-0.4,1-1.3,1.6-2.3,1.7
	C125.5,14.2,123.8,12.7,123.8,9.6z M129.5,9.8v-3C129.2,6,127,5.7,127,9.1c0,1.3,0.4,2.2,1.1,2.2C128.8,11.1,129.4,10.5,129.5,9.8z"
	/>
<path class="st1" d="M1.2,37.8l4.2-1.1c0.2,1.1,0.7,2,1.5,2c1,0,1.6-0.8,1.7-4.6c-0.9,0.9-2,1.4-3.3,1.5C2.2,35.5,1,33,1,29.3v-7.8
	h4.8c-0.3,2.4-0.4,4.8-0.4,7.3c0,2.3,0.4,3.2,1.3,3.2s1.6-0.8,1.8-1.8c-0.1-2.4-0.2-6.1-0.4-8.7h5v11.6c0,4.5-0.6,9.5-6.1,9.5
	C4.1,42.7,1.7,40.7,1.2,37.8z"/>
<path class="st1" d="M18.7,28.9c0-4.1,2.2-7.7,6.2-7.7s5.6,2.6,5.6,4.8c0,3.5-3.3,4.9-6.8,4.6c0.2,0.8,0.9,1.3,1.7,1.3
	c1,0,1.9-0.5,2.5-1.3l2.4,2c-1,2-3.1,3.3-5.3,3.2C20.7,35.8,18.7,32.7,18.7,28.9z M26.1,26.3c0-0.8-0.4-1.4-1.1-1.4
	c-1.2,0-1.6,1.7-1.7,3.6c1.3,0.2,2.5-0.7,2.7-2C26.1,26.4,26.1,26.4,26.1,26.3z"/>
<path class="st1" d="M36.8,35.5h-5c0.6-6.3,0.6-12.7,0-19h5V35.5z"/>
<path class="st1" d="M42.8,31.6l3.3-1.3c0.4,1.1,1.5,1.9,2.7,2c0.7,0,1.1-0.3,1.1-1c0-2.2-6.7-1.2-6.7-5.5c0-2.5,2.3-4.5,5.7-4.5
	s6,1.5,6,4.1c0,1.1-0.3,2.1-0.8,3L50,27.2c0.2-0.4,0.4-0.9,0.4-1.4c0-0.9-0.4-1.5-1.2-1.5s-1.2,0.8-1.2,1.6c0,3.5,6.7,1.7,6.7,6.1
	c0,2.4-2.5,3.7-5.5,3.7C45.6,35.8,43.2,33.8,42.8,31.6z"/>
<path class="st1" d="M55.4,31.9c0-4,4.4-4.6,8.2-3.7v-0.4c0.2-1.6,0.3-3.1-0.8-3.1s-1.3,1.6-1.5,2.6l-3.8-0.6c0-1.8,0.1-5.3,4.6-5.3
	c3.8,0,6.1,2.1,5.7,5.8c-0.3,2.9-0.9,4.9,0.5,4.9c0.3,0,0.6-0.1,0.9-0.2l0.5,2.7c-0.9,0.7-2.1,1.1-3.3,1.1c-1.3,0.1-2.4-0.8-2.7-2
	c-1,1.3-2.6,2.1-4.2,2C57.5,35.8,55.6,34.1,55.4,31.9C55.4,31.9,55.4,31.9,55.4,31.9z M63.5,31.2c0-0.2,0-0.4,0-0.7
	c-1.5-0.4-3.9-0.3-3.9,0.9c0,0.6,0.5,0.8,1.2,0.8C61.8,32.3,62.8,31.9,63.5,31.2z"/>
<path class="st1" d="M72.4,35.5h-2.1c0.6-6.3,0.6-12.7,0-19h4.8v6.1c2.4-1.8,7.7-1.5,7.7,6.3c0,4.7-2.1,6.8-4.7,6.8
	C75.7,35.7,74.7,35.5,72.4,35.5z M78.4,28.6c0-3.7-2.1-4.1-3.2-2.6v6.3c0.3,0,0.7,0,1,0C77.6,32.3,78.4,30.9,78.4,28.6z"/>
<path class="st1" d="M83.5,28.5c0-3.8,2-7.2,6.4-7.2s6.4,3.3,6.4,7.2s-2.1,7.3-6.4,7.3S83.5,32.2,83.5,28.5z M91.7,28.4
	c0-1.8-0.6-3.9-1.8-3.9s-1.8,2.1-1.8,3.9s0.5,4.1,1.8,4.1S91.7,30.3,91.7,28.4z"/>
<path class="st1" d="M101.8,35.5H97c0.6-4.6,0.6-9.4,0-14h4.8V23c0.9-1,2.2-1.6,3.5-1.6c2.5,0,3.9,2.1,3.7,5.4l-4.3,0.5
	c0-1.2-0.1-2.6-1.2-2.6s-1.7,1.7-1.8,3.5L101.8,35.5z"/>
<path class="st1" d="M114.6,31.6l3.3-1.3c0.4,1.1,1.5,1.9,2.7,2c0.7,0,1.1-0.3,1.1-1c0-2.2-6.7-1.2-6.7-5.5c0-2.5,2.3-4.5,5.7-4.5
	s6,1.5,6,4.1c0,1.1-0.3,2.1-0.8,3l-4.1-1.2c0.2-0.4,0.4-0.9,0.4-1.4c0-0.9-0.4-1.5-1.2-1.5s-1.2,0.8-1.2,1.6c0,3.5,6.7,1.7,6.7,6.1
	c0,2.4-2.5,3.7-5.5,3.7C117.4,35.8,115,33.8,114.6,31.6z"/>
<path class="st1" d="M127.3,28.9c0-4.1,2.2-7.7,6.2-7.7s5.6,2.6,5.6,4.8c0,3.5-3.3,4.9-6.8,4.6c0.2,0.8,0.9,1.3,1.7,1.3
	c1,0,1.9-0.5,2.5-1.3l2.4,2c-1,2-3.1,3.3-5.3,3.2C129.4,35.8,127.3,32.7,127.3,28.9z M134.8,26.3c0-0.8-0.4-1.4-1.1-1.4
	c-1.2,0-1.6,1.7-1.7,3.6c1.3,0.2,2.5-0.7,2.7-2C134.8,26.4,134.8,26.4,134.8,26.3z"/>
<path class="st1" d="M142.1,37.8l4.2-1c0.1,0.6,0.3,2,1.1,2c1.2,0,1.4-2,1.4-8.7c0-1.8-0.2-5.2-0.4-8.5h5v10.8
	c0,5.1-0.4,10.3-6,10.3C144.1,42.7,142.5,40.4,142.1,37.8z M148.1,18.3c0-1.1,0.7-2.1,2.8-2.1s2.8,1,2.8,2.1s-0.7,2.1-2.8,2.1
	S148.1,19.4,148.1,18.3L148.1,18.3z"/>
<path class="st1" d="M155.3,29.3v-7.8h4.8c-0.3,2.4-0.4,4.8-0.4,7.3c0,2.3,0.4,3.2,1.3,3.2s1.7-1,1.9-2.1v-8.4h4.8
	c-0.6,4.6-0.6,9.4,0,14h-4.8v-1.3c-0.9,0.9-2,1.4-3.3,1.4C156.5,35.5,155.3,33,155.3,29.3z"/>
<path class="st1" d="M173.7,35.5h-4.8c0.6-4.6,0.6-9.4,0-14h4.8v1.4c0.8-0.9,2-1.5,3.3-1.5c3,0,4.4,2.6,4.4,6.3v7.9h-4.8
	c0.3-2.4,0.4-4.9,0.4-7.3c0-2.3-0.4-3.2-1.3-3.2c-1,0.2-1.8,1-1.9,2V35.5z"/>
<path class="st1" d="M183.8,26.9v-0.8h-1.6l-0.7-3.6h2.3v-5h5c-0.1,1.2-0.3,3.2-0.3,5h4.3l-0.7,3.6h-3.7c-0.1,3.2-0.3,5.9,0.8,5.9
	c0.8,0,1-1.4,1.1-2l4,0.7c-0.2,2.6-2,5.2-5.3,5.2C183.9,35.9,183.8,31.6,183.8,26.9z"/>
<path class="st1" d="M194.8,31.9c0-4,4.4-4.6,8.2-3.7v-0.4c0.2-1.6,0.3-3.1-0.8-3.1s-1.3,1.6-1.5,2.6l-3.8-0.6
	c0-1.8,0.1-5.3,4.6-5.3c3.8,0,6.1,2.1,5.7,5.8c-0.3,2.9-0.9,4.9,0.5,4.9c0.3,0,0.6-0.1,0.9-0.2l0.5,2.7c-0.9,0.7-2.1,1.1-3.2,1.1
	c-1.3,0.1-2.4-0.8-2.7-2c-1,1.3-2.6,2.1-4.2,2c-2.2,0.1-4.1-1.5-4.3-3.7C194.8,31.9,194.8,31.9,194.8,31.9z M202.9,31.2
	c0-0.2,0-0.4,0-0.7c-1.5-0.4-3.9-0.3-3.9,0.9c0,0.6,0.5,0.8,1.2,0.8C201.2,32.3,202.2,31.9,202.9,31.2z"/>
<path class="st1" d="M214.5,35.5h-4.8c0.6-4.6,0.6-9.4,0-14h4.8v1.4c0.8-0.9,2-1.5,3.3-1.5c3,0,4.4,2.6,4.4,6.3v7.9h-4.8
	c0.3-2.4,0.4-4.9,0.4-7.3c0-2.3-0.4-3.2-1.3-3.2c-1,0.2-1.8,1-1.9,2V35.5z"/>
<path class="st1" d="M223.8,33.8c0-1.1,0.7-2,2.9-2s2.9,1,2.9,2s-0.7,2-2.9,2S223.8,34.8,223.8,33.8z"/>
<circle class="st3" cx="8.3" cy="58.6" r="4.7"/>
<path class="st4" d="M7.1,61.2c0,0.1,0.1,0.1,0.1,0.2c0.1,0,0.1,0,0.2,0c0,0,0,0,0,0l2.4-2.4c0.1-0.1,0.1-0.2,0-0.3c0,0,0,0,0,0
	c-0.8-0.8-1.6-1.6-2.4-2.5C7.3,56,7.3,56,7.2,56c-0.1,0-0.1,0.1-0.1,0.2c0,0.1,0,0.1,0.1,0.2l1,1l1.3,1.3c0,0,0,0.1,0,0.1L7.2,61
	C7.1,61,7.1,61.1,7.1,61.2z"/>
<path class="st2" d="M24.5,56.1c0.2,0.2,0.3,0.4,0.3,0.6c0,0.2-0.1,0.5-0.3,0.6c-0.4,0.3-1,0.3-1.4,0c-0.2-0.2-0.3-0.4-0.3-0.6
	c0-0.2,0.1-0.5,0.3-0.6C23.6,55.8,24.1,55.8,24.5,56.1z M23.1,58.3h1.4l0.2,4.5H23L23.1,58.3z"/>
<path class="st2" d="M31.1,57.8c-0.2,0.3-0.5,0.6-0.8,0.8c-0.4,0.2-0.9,0.3-1.4,0.3h-1v2.4h-1.6v-6.7h2.6c0.5,0,0.9,0.1,1.3,0.3
	c0.3,0.2,0.6,0.4,0.8,0.8C31.5,56.3,31.5,57.1,31.1,57.8L31.1,57.8z M29.5,57.4c0.2-0.2,0.2-0.4,0.2-0.6c0-0.2-0.1-0.5-0.2-0.6
	c-0.2-0.2-0.4-0.2-0.7-0.2h-0.9v1.7h0.9C29,57.6,29.3,57.5,29.5,57.4z"/>
<path class="st2" d="M32.3,55.2c-0.3-0.3-0.4-0.9,0-1.2c0,0,0,0,0,0c0.4-0.3,1-0.3,1.4,0c0.3,0.3,0.4,0.9,0,1.2c0,0,0,0,0,0
	C33.3,55.5,32.7,55.5,32.3,55.2z M33.8,56v5.3h-1.6V56L33.8,56z"/>
<path class="st2" d="M35,57.2c0.2-0.4,0.5-0.7,0.8-1c0.3-0.2,0.8-0.3,1.2-0.3c0.3,0,0.7,0.1,1,0.2c0.3,0.1,0.5,0.3,0.7,0.6v-2.5h1.6
	v7h-1.6v-0.8c-0.2,0.3-0.4,0.5-0.7,0.6c-0.3,0.2-0.7,0.2-1,0.2c-0.4,0-0.8-0.1-1.2-0.3c-0.4-0.3-0.7-0.6-0.8-1
	c-0.2-0.5-0.3-0.9-0.3-1.4C34.7,58.1,34.8,57.6,35,57.2z M38.3,57.7c-0.4-0.5-1.2-0.5-1.6,0c0,0,0,0,0,0c-0.2,0.3-0.4,0.6-0.3,1
	c0,0.4,0.1,0.7,0.3,1c0.4,0.5,1.1,0.5,1.6,0.1c0,0,0,0,0.1-0.1c0.2-0.3,0.4-0.6,0.3-1C38.7,58.3,38.6,57.9,38.3,57.7z"/>
<path class="st2" d="M46.4,59h-3.7c0,0.3,0.1,0.6,0.3,0.8c0.2,0.2,0.4,0.3,0.7,0.3c0.4,0,0.7-0.2,0.8-0.5h1.7
	c-0.1,0.3-0.3,0.7-0.5,0.9c-0.2,0.3-0.5,0.5-0.9,0.7c-0.4,0.2-0.8,0.2-1.2,0.2c-0.5,0-1-0.1-1.4-0.3c-0.4-0.2-0.8-0.6-1-1
	c-0.2-0.4-0.4-0.9-0.3-1.4c0-0.5,0.1-1,0.3-1.4c0.2-0.4,0.6-0.7,1-1c0.4-0.2,0.9-0.3,1.4-0.3c0.5,0,0.9,0.1,1.4,0.3
	c0.4,0.2,0.7,0.5,0.9,0.9c0.2,0.4,0.4,0.9,0.3,1.4C46.5,58.6,46.4,58.8,46.4,59z M44.8,58.1c0-0.3-0.1-0.5-0.3-0.7
	c-0.2-0.2-0.5-0.2-0.7-0.2c-0.2,0-0.5,0.1-0.7,0.2c-0.2,0.2-0.3,0.4-0.3,0.7H44.8z"/>
<path class="st2" d="M54.7,56l-3.3,7.8h-1.7l1.2-2.7L48.7,56h1.8l1.2,3.3L53,56H54.7z"/>
<path class="st2" d="M55.3,57.2c0.2-0.4,0.5-0.7,0.8-1c0.4-0.2,0.8-0.3,1.2-0.3c0.3,0,0.7,0.1,1,0.2c0.3,0.1,0.5,0.3,0.7,0.6V56h1.6
	v5.3H59v-0.8c-0.2,0.2-0.4,0.5-0.7,0.6c-0.3,0.2-0.7,0.2-1,0.2c-0.4,0-0.8-0.1-1.2-0.4c-0.4-0.2-0.7-0.6-0.8-1
	c-0.2-0.4-0.3-0.9-0.3-1.4C55,58.1,55.1,57.6,55.3,57.2z M58.6,57.7c-0.2-0.2-0.5-0.4-0.8-0.3c-0.3,0-0.6,0.1-0.8,0.3
	c-0.2,0.3-0.4,0.6-0.3,1c0,0.4,0.1,0.7,0.3,1c0.2,0.2,0.5,0.4,0.8,0.4c0.3,0,0.6-0.1,0.8-0.3c0.2-0.3,0.4-0.6,0.3-1
	C59,58.3,58.9,57.9,58.6,57.7z"/>
<path class="st2" d="M62.3,61.1c-0.2-0.2-0.3-0.4-0.3-0.6c0-0.2,0.1-0.5,0.3-0.6c0.2-0.2,0.4-0.3,0.7-0.2c0.2,0,0.5,0.1,0.7,0.2
	c0.2,0.2,0.3,0.4,0.3,0.6c0,0.2-0.1,0.5-0.3,0.6c-0.2,0.2-0.4,0.3-0.7,0.2C62.8,61.4,62.5,61.3,62.3,61.1z M63.9,54.4l-0.2,4.5h-1.4
	l-0.2-4.5H63.9z"/>
<g>
	<path class="st1" d="M125.5,97.8c0.2-0.4,0.6-0.7,1-1c0.4-0.2,0.9-0.3,1.4-0.3c0.6,0,1.1,0.2,1.5,0.5c0.4,0.3,0.8,0.7,0.9,1.3h-1.2
		c-0.1-0.3-0.3-0.4-0.5-0.6c-0.2-0.1-0.5-0.2-0.8-0.2c-0.3,0-0.6,0.1-0.8,0.2c-0.2,0.1-0.4,0.3-0.6,0.6c-0.1,0.3-0.2,0.6-0.2,0.9
		c0,0.3,0.1,0.7,0.2,0.9c0.1,0.3,0.3,0.5,0.6,0.6c0.2,0.1,0.5,0.2,0.8,0.2c0.3,0,0.5-0.1,0.8-0.2c0.2-0.1,0.4-0.3,0.5-0.6h1.2
		c-0.2,0.5-0.5,1-0.9,1.3c-0.4,0.3-1,0.4-1.6,0.4c-0.5,0-1-0.1-1.4-0.3c-0.4-0.2-0.7-0.5-1-1c-0.2-0.4-0.4-0.9-0.4-1.4
		C125.2,98.7,125.3,98.2,125.5,97.8z"/>
	<path class="st1" d="M132.8,97.8c0.2-0.1,0.5-0.2,0.8-0.2v1.1h-0.3c-0.3,0-0.6,0.1-0.8,0.2c-0.2,0.2-0.3,0.4-0.3,0.8v2.1h-1.1v-4.2
		h1.1v0.7C132.4,98.1,132.6,97.9,132.8,97.8z"/>
	<path class="st1" d="M134.3,98.6c0.2-0.3,0.4-0.6,0.7-0.8c0.3-0.2,0.6-0.3,1-0.3c0.3,0,0.6,0.1,0.8,0.2c0.2,0.1,0.4,0.3,0.6,0.5
		v-0.6h1.1v4.2h-1.1v-0.6c-0.1,0.2-0.3,0.4-0.6,0.5c-0.2,0.1-0.5,0.2-0.8,0.2c-0.4,0-0.7-0.1-1-0.3c-0.3-0.2-0.5-0.4-0.7-0.8
		c-0.2-0.3-0.3-0.7-0.3-1.1C134,99.3,134.1,99,134.3,98.6z M137.2,99.1c-0.1-0.2-0.2-0.3-0.4-0.4c-0.2-0.1-0.4-0.1-0.6-0.1
		c-0.2,0-0.4,0-0.5,0.1c-0.2,0.1-0.3,0.2-0.4,0.4c-0.1,0.2-0.2,0.4-0.2,0.7c0,0.3,0.1,0.5,0.2,0.7c0.1,0.2,0.2,0.3,0.4,0.4
		c0.2,0.1,0.3,0.2,0.5,0.2c0.2,0,0.4,0,0.6-0.1c0.2-0.1,0.3-0.2,0.4-0.4c0.1-0.2,0.2-0.4,0.2-0.7C137.3,99.5,137.3,99.3,137.2,99.1z
		"/>
	<path class="st1" d="M139.4,101.7c-0.1-0.1-0.2-0.3-0.2-0.4c0-0.2,0.1-0.3,0.2-0.4c0.1-0.1,0.3-0.2,0.5-0.2c0.2,0,0.3,0.1,0.5,0.2
		c0.1,0.1,0.2,0.3,0.2,0.4c0,0.2-0.1,0.3-0.2,0.4c-0.1,0.1-0.3,0.2-0.5,0.2C139.7,101.9,139.5,101.9,139.4,101.7z"/>
	<path class="st1" d="M143,100.8V100l2.5-3.5h1.2v3.4h0.7v0.9h-0.7v1.1h-1.1v-1.1H143z M145.7,97.6l-1.5,2.3h1.5V97.6z"/>
	<path class="st1" d="M151.6,97.2l-2,4.7h-1.1l2-4.6h-2.6v-0.9h3.6V97.2z"/>
	<path class="st1" d="M158.8,98.5l-0.2,1.2h1v0.9h-1.2l-0.3,1.3h-1l0.3-1.3h-1.4l-0.3,1.3h-1l0.3-1.3h-1.1v-0.9h1.3l0.2-1.2h-1.1
		v-0.9h1.3l0.3-1.3h1l-0.3,1.3h1.4l0.3-1.3h1l-0.3,1.3h1v0.9H158.8z M157.8,98.5h-1.4l-0.2,1.2h1.4L157.8,98.5z"/>
	<path class="st1" d="M160.6,97.3v-1h1.8v5.5h-1.1v-4.5H160.6z"/>
	<path class="st1" d="M163.4,100.8V100l2.5-3.5h1.2v3.4h0.7v0.9h-0.7v1.1H166v-1.1H163.4z M166.1,97.6l-1.5,2.3h1.5V97.6z"/>
	<path class="st1" d="M168.4,100.8V100l2.5-3.5h1.2v3.4h0.7v0.9h-0.7v1.1H171v-1.1H168.4z M171.1,97.6l-1.5,2.3h1.5V97.6z"/>
	<path class="st1" d="M176.8,98.7v0.9h-3.2v-0.9H176.8z"/>
	<path class="st1" d="M178.3,97c0.3-0.5,0.8-0.7,1.6-0.7s1.3,0.2,1.6,0.7s0.5,1.2,0.5,2c0,0.9-0.2,1.6-0.5,2.1
		c-0.3,0.5-0.8,0.7-1.6,0.7s-1.3-0.2-1.6-0.7c-0.3-0.5-0.5-1.2-0.5-2.1C177.8,98.2,178,97.5,178.3,97z M180.8,98.1
		c0-0.3-0.1-0.5-0.3-0.6c-0.1-0.2-0.4-0.2-0.6-0.2s-0.5,0.1-0.6,0.2c-0.1,0.2-0.2,0.4-0.3,0.6c0,0.3-0.1,0.6-0.1,0.9
		c0,0.4,0,0.7,0.1,1c0,0.3,0.1,0.5,0.3,0.6c0.1,0.2,0.4,0.2,0.6,0.2s0.5-0.1,0.6-0.2c0.1-0.2,0.2-0.4,0.3-0.6c0-0.3,0.1-0.6,0.1-1
		C180.9,98.7,180.8,98.4,180.8,98.1z"/>
	<path class="st1" d="M186.4,97.3H184v1.3c0.1-0.1,0.3-0.2,0.5-0.3c0.2-0.1,0.4-0.1,0.6-0.1c0.4,0,0.7,0.1,1,0.3
		c0.3,0.2,0.4,0.4,0.6,0.7c0.1,0.3,0.2,0.6,0.2,0.9c0,0.6-0.2,1-0.5,1.4c-0.3,0.4-0.8,0.5-1.4,0.5c-0.6,0-1-0.1-1.4-0.4
		c-0.3-0.3-0.5-0.7-0.6-1.1h1c0,0.2,0.1,0.4,0.3,0.5c0.2,0.1,0.4,0.2,0.6,0.2c0.3,0,0.5-0.1,0.7-0.3c0.2-0.2,0.2-0.4,0.2-0.7
		c0-0.3-0.1-0.6-0.2-0.7c-0.2-0.2-0.4-0.2-0.7-0.2c-0.2,0-0.4,0.1-0.5,0.2c-0.1,0.1-0.2,0.2-0.3,0.4h-1v-3.2h3.4V97.3z"/>
</g>
</svg>
