<?xml version="1.0" encoding="utf-8"?>
<!-- Generator: Adobe Illustrator 26.0.1, SVG Export Plug-In . SVG Version: 6.00 Build 0)  -->
<svg version="1.1" id="Capa_1" xmlns="http://www.w3.org/2000/svg" xmlns:xlink="http://www.w3.org/1999/xlink" x="0px" y="0px"
	 viewBox="0 0 1899.9 763.9" style="enable-background:new 0 0 1899.9 763.9;" xml:space="preserve">
<style type="text/css">
	.st0{fill:#FFFFFF;}
	.st1{fill:#FF8A0B;}
	.st2{fill:#272727;}
	.st3{fill:#DA2A2A;}
</style>
<g id="Capa_1-2">
	<path class="st0" d="M33.4,144.4c-7.7-3-14.5-8.2-19.5-14.8C9,123.1,6.4,115.2,6.2,106h36.4c0.5,5.2,2.3,9.2,5.4,11.9
		S55,122,60,122c5.1,0,9.1-1.2,12-3.5c2.9-2.3,4.6-5.9,4.4-9.7c0.1-3.2-1.2-6.4-3.5-8.6c-2.5-2.4-5.4-4.3-8.6-5.6
		c-4.7-1.9-9.6-3.6-14.5-5c-7.6-2.2-15-5-22.2-8.4c-5.9-2.9-10.9-7.1-14.8-12.4c-4.1-5.5-6.2-12.6-6.2-21.4
		c0-13.1,4.7-23.3,14.2-30.7s21.8-11.1,37-11.1c15.5,0,27.9,3.7,37.4,11.1s14.5,17.7,15.2,30.9h-37c-0.1-4.1-1.9-8-5-10.7
		c-3.1-2.6-7-3.9-11.8-3.9c-4.1,0-7.5,1.1-10,3.3c-2.5,2.2-3.8,5.4-3.8,9.5c0,4.5,2.1,8.1,6.4,10.6c4.3,2.5,10.9,5.3,20,8.2
		c7.5,2.5,14.9,5.4,22.1,8.8c5.8,2.9,10.8,7.1,14.7,12.2c4.1,5.3,6.2,12.2,6.2,20.6c0.1,7.7-2,15.3-6.1,21.8
		c-4.3,6.8-10.5,12.2-17.7,15.6c-7.7,3.9-16.9,5.8-27.4,5.8C51.6,149.6,42.2,147.9,33.4,144.4z"/>
	<path class="st0" d="M132.9,61.8c3.9-8.2,10-15.1,17.7-20c7.5-4.7,16.2-7.1,25-7c7.2-0.2,14.3,1.5,20.7,4.8
		c5.6,2.9,10.4,7.2,13.7,12.6V36.4h34.2V148H210v-15.8c-3.5,5.3-8.3,9.7-13.9,12.6c-6.4,3.3-13.5,5-20.7,4.8
		c-8.8,0.1-17.4-2.4-24.8-7.1c-7.7-5-13.8-11.9-17.7-20.2c-4.3-8.7-6.5-18.8-6.5-30.3S128.6,70.5,132.9,61.8z M202.9,72
		c-9.2-9.6-24.4-9.9-33.9-0.8c-0.2,0.2-0.4,0.4-0.7,0.7c-4.7,4.9-7.1,11.6-7.1,20.1s2.4,15.3,7.1,20.3c9,9.6,24.1,10,33.7,1
		c0.3-0.3,0.6-0.6,0.9-0.9c4.8-4.9,7.1-11.7,7.1-20.2S207.6,76.9,202.9,72z"/>
	<path class="st0" d="M317,39.6c6.4-3.3,13.4-4.9,20.6-4.8c8.8-0.1,17.5,2.3,25,7c7.7,4.9,13.8,11.8,17.7,20
		c4.3,8.7,6.5,18.7,6.5,30.2s-2.2,21.6-6.5,30.3c-3.9,8.3-10,15.2-17.7,20.2c-7.5,4.7-16.2,7.2-25,7.1c-7.2,0.2-14.2-1.4-20.6-4.7
		c-5.6-2.9-10.4-7.2-13.8-12.5V148H269V0h34.2v52.2C306.6,46.8,311.3,42.5,317,39.6z M344.9,71.9c-4.5-4.8-10.9-7.4-17.5-7.3
		c-6.6-0.1-12.8,2.6-17.3,7.4c-4.7,4.9-7.1,11.7-7.1,20.2s2.4,15.3,7.1,20.2c9.1,9.6,24.3,9.9,33.8,0.8c0.3-0.3,0.6-0.6,0.9-0.9
		c4.8-5,7.2-11.8,7.2-20.3S349.6,76.8,344.9,71.9L344.9,71.9z"/>
	<path class="st0" d="M509.4,100.4H432c0.5,6.9,2.8,12.2,6.7,15.9c3.9,3.7,9.1,5.6,14.5,5.5c8.5,0,14.5-3.6,17.8-10.8h36.4
		c-1.8,7.3-5.3,14-10.1,19.8c-5,5.9-11.2,10.7-18.3,13.8c-7.7,3.4-16.1,5.1-24.6,5c-10.9,0-20.7-2.3-29.2-7
		c-8.5-4.6-15.4-11.5-20-20c-4.8-8.7-7.2-18.8-7.2-30.4s2.4-21.7,7.1-30.4c4.5-8.5,11.5-15.4,19.9-20c8.5-4.7,18.3-7,29.4-7
		c10.8,0,20.4,2.3,28.8,6.8c8.3,4.4,15.1,11.2,19.7,19.4c4.8,8.4,7.1,18.2,7.1,29.4C510,93.7,509.8,97.1,509.4,100.4z M475,81.4
		c0-5.9-2-10.5-6-14c-4-3.5-9-5.2-15-5.2c-5.3-0.2-10.4,1.6-14.5,5c-3.9,3.3-6.4,8.1-7.3,14.2L475,81.4z"/>
	<path class="st0" d="M703.5,47.8c8.2,8.4,12.3,20.1,12.3,35V148h-34V87.4c0-7.2-1.9-12.8-5.7-16.7c-3.8-3.9-9-5.9-15.7-5.9
		s-11.9,2-15.7,5.9c-3.8,3.9-5.7,9.5-5.7,16.7V148h-34V87.4c0-7.2-1.9-12.8-5.7-16.7c-3.8-3.9-9-5.9-15.7-5.9s-11.9,2-15.7,5.9
		c-3.8,3.9-5.7,9.5-5.7,16.7V148H528V36.4h34.2v14c3.6-4.8,8.2-8.6,13.6-11.1c5.9-2.8,12.4-4.2,19-4.1c7.8-0.1,15.6,1.7,22.5,5.4
		c6.5,3.5,11.9,8.9,15.5,15.4c4-6.2,9.4-11.4,15.8-15c6.6-3.9,14.1-5.9,21.8-5.8C684.2,35.2,695.3,39.4,703.5,47.8z"/>
	<path class="st0" d="M761.1,142.6c-8.6-4.6-15.8-11.5-20.6-20c-5-8.7-7.5-18.8-7.5-30.4c0-11.5,2.5-21.6,7.6-30.3
		c4.9-8.5,12.1-15.5,20.8-20.1c18.6-9.3,40.6-9.3,59.2,0c8.7,4.6,15.9,11.6,20.8,20.1c5.1,8.7,7.6,18.8,7.6,30.3s-2.6,21.6-7.7,30.3
		c-5,8.6-12.2,15.5-21,20.1c-9.2,4.7-19.4,7.1-29.7,7C780.3,149.8,770.2,147.4,761.1,142.6z M807.3,112.8c4.6-4.8,6.9-11.7,6.9-20.6
		c0-8.9-2.2-15.8-6.7-20.6c-8.6-9.2-23-9.6-32.1-1.1c-0.3,0.3-0.7,0.6-1,1c-4.4,4.7-6.6,11.6-6.6,20.7c0,8.9,2.2,15.8,6.5,20.6
		c4.1,4.7,10.1,7.3,16.3,7.2C796.9,120.1,803,117.5,807.3,112.8z"/>
	<path class="st0" d="M886.6,144.6c-7.1-2.9-13.3-7.7-18-13.7c-4.3-5.6-6.9-12.4-7.4-19.5H895c0.3,3.8,2.3,7.2,5.4,9.4
		c3.4,2.5,7.6,3.7,11.8,3.6c4.3,0,7.6-0.8,9.9-2.5c2.2-1.4,3.5-3.9,3.5-6.5c0-3.2-1.7-5.6-5-7.1c-3.3-1.5-8.7-3.2-16.2-5.1
		c-6.8-1.5-13.5-3.5-20-5.9c-5.3-2.1-10.1-5.4-13.8-9.8c-3.9-4.5-5.8-10.5-5.8-18.1c-0.1-6.2,1.8-12.3,5.3-17.5
		c3.5-5.3,8.7-9.4,15.6-12.5c6.9-3.1,15-4.6,24.5-4.6c14,0,25,3.5,33.1,10.4s12.7,16.1,13.9,27.6h-31.6c-0.4-3.6-2.2-6.9-5.1-9.2
		c-2.9-2.3-6.6-3.4-11.3-3.4c-4,0-7.1,0.8-9.2,2.3c-2.1,1.4-3.3,3.8-3.2,6.3c0,3.2,1.7,5.6,5.1,7.2c3.4,1.6,8.7,3.2,15.9,4.8
		c6.9,1.7,13.6,3.8,20.2,6.3c5.3,2.2,10,5.6,13.7,10c3.9,4.6,6,10.8,6.1,18.5c0.1,6.3-1.8,12.4-5.5,17.5c-3.7,5.1-8.9,9.2-15.8,12.1
		s-14.8,4.4-23.9,4.4C903.7,149.8,894.8,148.1,886.6,144.6z"/>
	<path class="st0" d="M1055.3,0v148h-34.2V0H1055.3z"/>
	<path class="st0" d="M1101.4,142.6c-8.6-4.6-15.8-11.5-20.6-20c-5-8.7-7.5-18.8-7.5-30.4c0-11.5,2.5-21.6,7.6-30.3
		c4.9-8.5,12.1-15.5,20.8-20.1c18.6-9.3,40.6-9.3,59.2,0c8.7,4.6,15.9,11.6,20.8,20.1c5.1,8.7,7.6,18.8,7.6,30.3
		c0,11.5-2.6,21.6-7.7,30.3c-4.9,8.6-12.2,15.5-21,20.1c-9.2,4.7-19.4,7.1-29.7,7C1120.7,149.8,1110.5,147.4,1101.4,142.6z
		 M1147.6,112.8c4.6-4.8,6.9-11.7,6.9-20.6s-2.2-15.8-6.7-20.6c-8.6-9.2-23-9.6-32.1-1.1c-0.3,0.3-0.7,0.6-1,1
		c-4.4,4.7-6.6,11.6-6.6,20.7c0,8.9,2.2,15.8,6.5,20.6c4.1,4.7,10.1,7.4,16.3,7.2C1137.3,120.1,1143.4,117.5,1147.6,112.8
		L1147.6,112.8z"/>
	<path class="st0" d="M1250.1,62.8c4.3-8.3,10.7-15.3,18.6-20.3c7.6-4.8,16.5-7.4,25.5-7.3c6.5-0.1,13,1.2,19,3.7
		c5.3,2.3,10,5.8,13.6,10.3V36.4h34.2v164.8h-34.2V134c-3.9,4.7-8.7,8.5-14.1,11.2c-5.9,2.9-12.4,4.3-18.9,4.2
		c-8.9,0-17.7-2.5-25.2-7.2c-7.9-4.9-14.3-11.9-18.5-20.2c-4.6-8.7-6.9-18.5-6.9-29.6S1245.5,71.5,1250.1,62.8z M1323.2,77.1
		c-2.1-3.9-5.3-7-9.1-9.2c-3.6-2-7.7-3.1-11.8-3.1c-4.1,0-8.1,1.1-11.6,3.1c-3.9,2.2-7,5.4-9.2,9.3c-2.4,4.1-3.6,9.2-3.6,15.2
		c0,6,1.2,11,3.6,15.1c2.2,3.8,5.4,7,9.2,9.2c3.5,2,7.5,3.1,11.6,3.1c4.1,0,8.1-1.1,11.7-3.1c3.9-2.2,7.1-5.4,9.2-9.3
		c2.3-4.1,3.5-9.2,3.5-15.2C1326.8,86.2,1325.6,81.2,1323.2,77.1z"/>
	<path class="st0" d="M1496,36.4V148h-34.2v-15.2c-3.6,5.1-8.5,9.2-14.1,11.9c-6.1,3-12.9,4.6-19.7,4.5c-7.9,0.2-15.7-1.8-22.6-5.7
		c-6.6-3.9-11.9-9.6-15.2-16.5c-3.6-7.2-5.4-15.7-5.4-25.4V36.4h34V97c0,7.5,1.9,13.3,5.8,17.4c3.9,4.1,9.1,6.2,15.6,6.2
		c6.7,0,11.9-2.1,15.8-6.2c3.9-4.1,5.8-9.9,5.8-17.4V36.4H1496z"/>
	<path class="st0" d="M1625.2,100.4h-77.4c0.5,6.9,2.8,12.2,6.7,15.9c3.9,3.7,9.1,5.6,14.5,5.5c8.5,0,14.5-3.6,17.8-10.8h36.4
		c-3.8,15-14.3,27.4-28.4,33.6c-7.7,3.4-16.1,5.1-24.6,5c-10.9,0-20.7-2.3-29.2-7c-8.5-4.6-15.4-11.5-20-20
		c-4.8-8.7-7.2-18.8-7.2-30.4s2.4-21.7,7.1-30.4c4.5-8.5,11.5-15.4,19.9-20c8.5-4.7,18.3-7,29.4-7c10.8,0,20.4,2.3,28.8,6.8
		c8.3,4.4,15.1,11.2,19.7,19.4c4.7,8.4,7.1,18.2,7.1,29.4C1625.7,93.7,1625.5,97.1,1625.2,100.4z M1590.8,81.4c0-5.9-2-10.5-6-14
		c-4-3.5-9-5.2-15-5.2c-5.3-0.2-10.4,1.6-14.5,5c-3.9,3.3-6.4,8.1-7.3,14.2L1590.8,81.4z"/>
	<path class="st0" d="M1790.7,100.4h-77.4c0.5,6.9,2.8,12.2,6.7,15.9c3.9,3.7,9.1,5.6,14.5,5.5c8.5,0,14.5-3.6,17.8-10.8h36.4
		c-3.8,15-14.3,27.4-28.4,33.6c-7.7,3.4-16.1,5.1-24.6,5c-10.9,0-20.7-2.3-29.2-7c-8.5-4.6-15.4-11.5-20-20
		c-4.8-8.7-7.2-18.8-7.2-30.4c0-11.6,2.4-21.7,7.1-30.4c4.5-8.5,11.5-15.4,19.9-20c8.5-4.7,18.3-7,29.4-7c10.8,0,20.4,2.3,28.8,6.8
		c8.3,4.4,15.1,11.2,19.7,19.4c4.7,8.4,7.1,18.2,7.1,29.4C1791.3,93.7,1791.1,97.1,1790.7,100.4z M1756.3,81.4c0-5.9-2-10.5-6-14
		c-4-3.5-9-5.2-15-5.2c-5.3-0.2-10.4,1.6-14.5,5c-3.9,3.3-6.4,8.1-7.3,14.2L1756.3,81.4z"/>
	<path class="st0" d="M1828.7,144.6c-7.1-2.9-13.3-7.7-18-13.7c-4.3-5.6-6.9-12.4-7.4-19.5h33.8c0.3,3.8,2.3,7.2,5.4,9.4
		c3.4,2.5,7.6,3.7,11.8,3.6c4.3,0,7.6-0.8,9.9-2.5c2.2-1.4,3.5-3.9,3.5-6.5c0-3.2-1.7-5.6-5-7.1c-3.3-1.5-8.7-3.2-16.2-5.1
		c-6.8-1.5-13.5-3.5-20-5.9c-5.3-2.1-10.1-5.4-13.8-9.8c-3.9-4.5-5.8-10.5-5.8-18.1c0-6.2,1.8-12.3,5.3-17.5
		c3.5-5.3,8.7-9.4,15.6-12.5s15-4.6,24.5-4.6c14,0,25,3.5,33.1,10.4s12.7,16.1,13.9,27.6h-31.6c-0.4-3.6-2.2-6.9-5.1-9.2
		c-2.9-2.3-6.6-3.4-11.3-3.4c-4,0-7.1,0.8-9.2,2.3c-2.1,1.4-3.3,3.8-3.2,6.3c0,3.2,1.7,5.6,5.1,7.2c3.4,1.6,8.7,3.2,15.9,4.8
		c6.9,1.7,13.6,3.8,20.2,6.3c5.3,2.2,10,5.6,13.7,10c3.9,4.6,6,10.8,6.1,18.5c0.1,6.3-1.8,12.4-5.5,17.5c-3.7,5.1-8.9,9.2-15.8,12.1
		c-6.9,2.9-14.8,4.4-23.9,4.4C1845.8,149.8,1837,148.1,1828.7,144.6z"/>
	<path class="st1" d="M3.7,319.6C3.7,279,49.8,203,97.9,203c57.3,0,53.6,60.6,25.2,76c-1.2,0.6-2.4,0.9-3.7,0.9
		c-7,0-16.8-8.9-11.2-12.1c12.1-7.9,21-38.7,3.7-38.7c-21,0-59.2,52.7-59.2,90c0,8.9,3.7,24.7,27,24.7c25.2,0,50.8-28,76.9-56.9
		c3.7-3.7,7-5.6,10.3-5.6c7,0,10.7,7.5,5.1,14.5c-31.2,40.1-67.2,79.7-105.8,79.7C11.6,375.5,3.7,340.1,3.7,319.6z"/>
	<path class="st1" d="M262,203c70.9,0,74.6,63.9,43.8,113.8c8.7-2.3,16.7-6.9,22.9-13.5c8.4-9.3,11.2-13.1,14.5-16.3
		c3.3-3.7,7-5.6,10.2-5.6c6.5,0,10.7,7.5,5.1,14.5c-19.1,25.6-35.4,42.9-70.4,44.3c-20,21-46.6,35.4-76,35.4
		c-54.6,0-62.5-35.4-62.5-56C149.6,279,195.8,203,262,203z M225.6,343.8c8.4,0,17.2-3.7,25.6-9.8c-21.9-9.3-38.7-28-41-56.4
		c-7,14-11.7,28.5-11.7,41.5C198.6,328,202.3,343.8,225.6,343.8z M269.9,229.1c-12.1,0-35.9,14.9-35.9,44.3
		c0,20.5,15.9,35.9,35.4,42C296,281.3,308.6,229.1,269.9,229.1z"/>
	<path class="st1" d="M327.3,338.7c0-35.4,46.2-108.6,58.8-128.2c3.3-5.1,7.5-7.5,12.1-7.5c9.8,0,32.6,9.3,23.8,23.3
		c-6.5,10.3-24.2,46.6-36.8,81.6c27-38.7,92.8-104.9,117.5-104.9c16.3,0,31.7,15.4,31.7,32.6c0,5.1-4.2,15.4-9.8,28
		c29.8-31.7,63-60.6,79.7-60.6c16.3,0,31.7,15.4,31.7,32.6c0,18.7-48,93.7-48,104.9c0,2.3,0.9,3.3,2.8,3.3c7.9,0,33.1-28,59.7-56.9
		c3.3-3.7,7-5.6,10.3-5.6c6.5,0,10.7,7.5,5.1,14.5c-31.7,40.1-67.1,79.7-80.2,79.7c-10.3,0-46.2-13.5-46.2-37.8
		c0-25.2,56.9-98.9,41.5-98.9c-14,0-63.4,60.6-90,100.2c-4.2,10.7-6.5,20-6.5,27c0,5.6-1.4,9.3-9.3,9.3c-7,0-37.3-13.5-37.3-37.8
		c0-25.2,56.9-98.9,41.5-98.9c-19.1,0-104.9,113.8-107.2,130.6c-0.5,4.7-2.3,6.1-7,6.1C351.1,371.8,327.3,358.7,327.3,338.7z"/>
	<path class="st1" d="M737.2,203c32.2,0,45.2,19.1,45.2,38.7c0,37.3-33.1,54.1-66.7,54.1c-6.4,0.1-12.8-0.5-19.1-1.9
		c-2.8,8.4-4.7,17.2-4.7,25.2c0,8.9,3.7,24.7,27,24.7c25.2,0,50.8-28,76.9-56.9c3.7-3.7,7-5.6,10.3-5.6c7,0,10.7,7.5,5.1,14.5
		c-31.2,40.1-67.2,79.7-105.8,79.7c-54.6,0-62.5-35.4-62.5-56C643,279,689.1,203,737.2,203z M714.8,273.9c22.8,0,46.2-9.3,46.2-33.6
		c0-6.1-2.8-11.2-9.8-11.2c-13.1,0-32.6,20.1-45.7,44.3C708.5,273.8,711.7,273.9,714.8,273.9L714.8,273.9z"/>
	<path class="st1" d="M802.9,300.4c-7,0-12.1-7.5-7-13.5c14.9-16.8,29.4-34.5,40.6-48h-5.6c-13.5,0-21-19.6-22.8-28.4
		c-1.4-5.1,1.9-8.9,5.6-8.9c0.5,0,0.9,0.5,1.4,0.5c2.8,0.9,24.2,1.4,47.1,1.4c28,0,58.3-0.5,62.5-0.5c9.8,0,32.6,9.3,23.8,23.3
		C936.7,245,892,343.8,903.2,343.8c7.9,0,33.6-28,59.7-56.9c3.7-3.7,7-5.6,10.3-5.6c7,0,10.7,7.5,5.1,14.5
		c-31.2,40.1-67.1,79.7-79.2,79.7c-10.3,0-44.8-13.5-44.8-37.8c0-25.6,23.8-69.9,41.5-100.2c-13.5,0.5-28,0.9-40.1,0.9
		c-10.7,14-27,35.9-44.3,57.4C808.5,299,805.7,300.4,802.9,300.4z"/>
	<path class="st1" d="M1185.7,86.4c6.1-9.3,10.7-12.1,21-12.1s29.4,7,22.8,19.6c-1.4,3.3-46.6,90.9-78.8,161.8
		c22.8-27.5,51.7-52.7,72.2-52.7c79.7,0,3.3,172.5-50.4,172.5c-26.1,0-44.8-16.3-53.6-37.3c-2.8,10.2-4.9,20.7-6.1,31.2
		c-0.5,4.7-2.3,6.1-7,6.1c-14-3.7-37.8-16.8-37.8-36.8C1068.2,296.7,1185.7,86.4,1185.7,86.4z M1128.8,311.2
		c0.9,16.3,9.3,32.6,25.2,32.6c23.8,0,78.8-114.7,56-114.7C1190.4,229.1,1145.2,285,1128.8,311.2z"/>
	<path class="st1" d="M1365.3,286.9c3.7-3.7,7-5.6,10.3-5.6c7,0,10.7,7.5,5.1,14.5c-31.2,40.1-67.2,79.7-79.3,79.7
		c-10.2,0-44.8-13.5-44.8-37.8c0-35.4,45.7-107.7,58.3-127.3c3.3-5.1,7.5-7.5,12.1-7.5c9.8,0,32.6,9.3,23.8,23.3
		c-11.7,18.6-56.4,117.5-45.2,117.5C1313.5,343.8,1339.1,315.8,1365.3,286.9z M1358.3,188.1c-9.8,0-28-9.3-24.7-18.6
		c1.4-4.2,13.1-37.3,20-50.8c3.3-6.1,8.9-8.4,15.4-8.4c16.3,0,37.8,16.3,31.2,26.1c-8.4,13.1-30.8,40.6-36.4,49.4
		C1362.9,187.1,1361.1,188.1,1358.3,188.1L1358.3,188.1z"/>
	<path class="st1" d="M1452.5,203c32.2,0,45.2,19.1,45.2,38.7c0,37.3-33.1,54.1-66.7,54.1c-6.4,0.1-12.8-0.5-19.1-1.9
		c-2.8,8.4-4.7,17.2-4.7,25.2c0,8.9,3.7,24.7,27,24.7c25.2,0,50.8-28,76.9-56.9c3.7-3.7,7-5.6,10.3-5.6c7,0,10.7,7.5,5.1,14.5
		c-31.2,40.1-67.2,79.7-105.8,79.7c-54.6,0-62.5-35.4-62.5-56C1358.3,279,1404.4,203,1452.5,203z M1430.1,273.9
		c22.8,0,46.2-9.3,46.2-33.6c0-6.1-2.8-11.2-9.8-11.2c-13,0-32.6,20.1-45.7,44.3C1423.8,273.8,1427,273.9,1430.1,273.9L1430.1,273.9
		z"/>
	<path class="st1" d="M1605.9,337.7c0-25.2,56.9-98.9,41.5-98.9c-19.1,0-104.9,113.8-107.2,130.6c-0.5,4.7-2.3,6.1-7,6.1
		c-14-3.7-37.8-16.8-37.8-36.8c0-35.4,46.2-108.6,58.8-128.2c3.3-5.1,7.5-7.5,12.1-7.5c9.8,0,32.6,9.3,23.8,23.3
		c-6.5,10.3-24.2,46.6-36.8,81.6c27-38.7,92.8-104.9,117.5-104.9c16.3,0,31.7,15.4,31.7,32.6c0,18.7-48,93.7-48,104.9
		c0,2.3,0.9,3.3,2.8,3.3c7.9,0,33.6-28,59.7-56.9c3.7-3.7,7-5.6,10.3-5.6c7,0,10.7,7.5,5.1,14.5c-31.2,40.1-67.1,79.7-80.2,79.7
		C1641.8,375.5,1605.9,362,1605.9,337.7z"/>
	<path class="st0" d="M52,435.8h257.2c28.7,0,52,23.3,52,52v0c0,28.7-23.3,52-52,52H52c-28.7,0-52-23.3-52-52v0
		C0,459.1,23.3,435.8,52,435.8z"/>
	<path class="st2" d="M53.2,627h442.7c31.6,0,57.3,30.6,57.3,68.4l0,0c0,37.8-25.6,68.4-57.3,68.4H53.2C21.6,763.9-4,733.2-4,695.4
		l0,0C-4,657.7,21.6,627,53.2,627z"/>
	<circle class="st3" cx="72.5" cy="696.3" r="43.4"/>
	<path class="st0" d="M85.7,676.3c-2.4-2.2-5.4-3.6-8.6-4.1c-0.9,0.1-1.8,0.1-2.8,0h-4.5c-1.4,0-2.8,0.2-4.1,0.6
		c-8,2.9-13.3,10.4-13.3,18.9c-0.1,4,0.9,7.9,2.7,11.4c3.3,6.9,8,13.1,13.7,18.3c0.8,0.9,1.8,1.4,2.9,1.6h1.6
		c0.8-0.1,1.6-0.5,2.2-1.1c1.7-1.5,3.2-3.1,4.8-4.5c3.1-3.4,5.9-7.1,8.1-11.1c2.5-4.1,4-8.8,4.3-13.7c0.3-6.3-2.4-12.4-7.2-16.4
		L85.7,676.3z M72.6,701.8c-5.5-0.1-9.9-4.6-9.8-10.1c0.1-5.5,4.6-9.9,10.1-9.8s9.9,4.6,9.8,10.1c0,0,0,0,0,0l0,0
		c0.1,5.3-4.2,9.7-9.5,9.8c0,0,0,0,0,0L72.6,701.8L72.6,701.8z"/>
	<path class="st0" d="M146.3,671.2c1.2-2.2,3-4,5.2-5.2c2.2-1.3,4.8-1.9,7.4-1.9c3-0.1,5.9,0.8,8.3,2.5c2.4,1.6,4.1,4,5,6.8h-6.5
		c-0.6-1.3-1.5-2.3-2.8-3c-1.2-0.7-2.7-1-4.1-1c-1.6,0-3.1,0.4-4.4,1.2c-1.3,0.8-2.3,1.9-3,3.3c-1.4,3.1-1.4,6.8,0,9.9
		c0.7,1.4,1.7,2.5,3,3.3c1.3,0.8,2.9,1.2,4.4,1.2c1.4,0,2.8-0.3,4.1-1c1.2-0.7,2.2-1.8,2.8-3.1h6.6c-0.8,2.8-2.6,5.2-5,6.8
		c-2.5,1.6-5.4,2.5-8.4,2.4c-2.6,0-5.1-0.6-7.4-1.9c-2.2-1.2-4-3-5.2-5.2c-2.5-4.7-2.5-10.3,0-15L146.3,671.2z"/>
	<path class="st0" d="M182.8,662.8V693h-5.7v-30.2H182.8z"/>
	<path class="st0" d="M194.1,662.8V693h-5.7v-30.2H194.1z"/>
	<path class="st0" d="M199.8,692.3c-1.3-1.3-1.3-3.4,0-4.7c0,0,0,0,0,0c0.7-0.7,1.6-1,2.5-1c0.9,0,1.8,0.3,2.5,1
		c1.3,1.3,1.3,3.4,0,4.8c-0.7,0.7-1.6,1-2.5,1C201.4,693.3,200.4,692.9,199.8,692.3z"/>
	<path class="st0" d="M218.8,668.5v-5.2h9.8V693h-5.9v-24.5H218.8z"/>
	<path class="st0" d="M248.1,668.1c-0.8-0.6-1.8-0.9-2.9-0.9c-1.7-0.1-3.3,0.8-4.1,2.3c-0.9,1.5-1.3,4-1.4,7.4
		c0.7-1.1,1.7-2,2.8-2.5c1.3-0.6,2.7-0.9,4.1-0.9c1.6,0,3.3,0.4,4.7,1.1c1.4,0.8,2.5,1.9,3.2,3.3c1.5,3.3,1.5,7.1,0,10.4
		c-0.8,1.5-1.9,2.7-3.4,3.5c-3.8,1.9-8.4,1.6-12-0.6c-1.7-1.3-2.9-3.2-3.4-5.2c-0.7-2.7-1-5.5-1-8.3c0-5,0.9-8.7,2.6-11.3
		c1.7-2.5,4.4-3.8,8.1-3.8c2.4-0.2,4.8,0.7,6.6,2.3c1.6,1.5,2.5,3.6,2.7,5.8h-5.2C249.4,669.7,248.9,668.8,248.1,668.1z
		 M241.8,679.3c-1,0.9-1.6,2.3-1.5,3.7c-0.2,2.6,1.7,4.9,4.3,5.2c0.3,0,0.6,0,0.9,0c1.3,0.1,2.6-0.4,3.5-1.3c0.9-1,1.3-2.3,1.3-3.6
		c0.1-1.4-0.4-2.7-1.2-3.8c-1-1-2.3-1.5-3.7-1.4C244.1,678,242.8,678.5,241.8,679.3z"/>
	<path class="st0" d="M274.2,668.1c-0.8-0.6-1.8-0.9-2.9-0.9c-1.7-0.1-3.3,0.8-4.1,2.3c-0.9,1.5-1.3,4-1.4,7.4
		c0.7-1.1,1.7-2,2.9-2.5c1.3-0.6,2.7-0.9,4.1-0.9c1.6,0,3.3,0.4,4.7,1.1c1.4,0.8,2.5,1.9,3.2,3.3c1.5,3.3,1.5,7.1,0,10.4
		c-0.8,1.5-1.9,2.7-3.4,3.5c-3.8,1.9-8.4,1.6-12-0.6c-1.7-1.3-2.9-3.2-3.4-5.2c-0.7-2.7-1-5.5-1-8.3c0-5,0.9-8.7,2.6-11.3
		s4.4-3.8,8.1-3.8c2.4-0.2,4.8,0.7,6.6,2.3c1.6,1.5,2.5,3.6,2.7,5.8h-5.3C275.4,669.7,275,668.8,274.2,668.1z M267.8,679.3
		c-1,0.9-1.6,2.3-1.5,3.7c-0.2,2.6,1.7,4.9,4.3,5.2c0.3,0,0.6,0,0.9,0c1.3,0.1,2.6-0.4,3.5-1.3c0.9-1,1.4-2.3,1.3-3.6
		c0.1-1.4-0.4-2.7-1.2-3.8c-1-1-2.3-1.5-3.6-1.4C270.2,678,268.9,678.5,267.8,679.3L267.8,679.3z"/>
	<path class="st0" d="M321.8,674.7l-1.3,6.3h5.2v5.1h-6.3l-1.5,6.9h-5.4l1.5-6.9h-7.4l-1.5,6.9h-5.4l1.5-6.9h-6.2v-5.1h7.3l1.3-6.3
		h-6.1v-5.1h7.2l1.4-6.8h5.4l-1.4,6.8h7.4l1.4-6.8h5.4l-1.4,6.8h5.2v5.1L321.8,674.7z M316.3,674.7h-7.4l-1.3,6.3h7.4L316.3,674.7z"
		/>
	<path class="st0" d="M331.9,687.2v-4.5l13.3-19.1h6.7v18.6h3.6v5h-3.6v5.8h-5.7v-5.8H331.9z M346.5,669.7l-8.3,12.5h8.3V669.7z"/>
	<path class="st0" d="M373.1,668.1c-0.8-0.6-1.8-0.9-2.9-0.9c-1.7-0.1-3.3,0.8-4.1,2.3c-0.9,1.5-1.3,4-1.4,7.4
		c0.7-1.1,1.7-2,2.8-2.5c1.3-0.6,2.7-0.9,4.1-0.9c1.6,0,3.2,0.4,4.7,1.1c1.4,0.8,2.5,1.9,3.2,3.3c1.5,3.3,1.5,7.1,0,10.4
		c-0.8,1.5-1.9,2.7-3.4,3.5c-3.8,1.9-8.4,1.6-12-0.6c-1.7-1.3-2.9-3.2-3.4-5.2c-0.7-2.7-1-5.5-1-8.3c0-5,0.9-8.7,2.6-11.3
		c1.7-2.5,4.4-3.8,8.1-3.8c2.4-0.2,4.8,0.7,6.6,2.3c1.6,1.5,2.5,3.6,2.7,5.8h-5.3C374.3,669.7,373.8,668.8,373.1,668.1z
		 M366.7,679.3c-1,0.9-1.6,2.3-1.5,3.7c-0.2,2.6,1.7,4.9,4.3,5.2c0.3,0,0.6,0,0.9,0c1.3,0.1,2.6-0.4,3.5-1.3c0.9-1,1.4-2.3,1.3-3.6
		c0.1-1.4-0.4-2.7-1.2-3.8c-1-1-2.3-1.5-3.7-1.4C369,678,367.7,678.5,366.7,679.3L366.7,679.3z"/>
	<path class="st0" d="M403.2,676v4.8h-17.3V676H403.2z"/>
	<path class="st0" d="M422.9,668.1c-0.8-0.6-1.8-0.9-2.9-0.9c-1.7-0.1-3.3,0.8-4.1,2.3c-0.9,1.5-1.3,4-1.4,7.4
		c0.7-1.1,1.7-2,2.8-2.5c1.3-0.6,2.7-0.9,4.1-0.9c1.6,0,3.2,0.4,4.7,1.1c1.4,0.8,2.5,1.9,3.2,3.3c1.5,3.3,1.5,7.1,0,10.4
		c-0.8,1.5-1.9,2.7-3.4,3.5c-3.8,1.9-8.4,1.6-12-0.6c-1.7-1.3-2.9-3.2-3.4-5.2c-0.7-2.7-1-5.5-1-8.3c0-5,0.9-8.7,2.6-11.3
		c1.7-2.5,4.4-3.8,8.1-3.8c2.4-0.2,4.8,0.7,6.6,2.3c1.6,1.5,2.5,3.6,2.7,5.8h-5.3C424.1,669.7,423.6,668.8,422.9,668.1z
		 M416.5,679.3c-1,0.9-1.6,2.3-1.5,3.7c-0.2,2.6,1.7,4.9,4.3,5.2c0.3,0,0.6,0,0.9,0c1.3,0.1,2.6-0.4,3.5-1.3c0.9-1,1.4-2.3,1.3-3.6
		c0.1-1.4-0.4-2.7-1.2-3.8c-1-1-2.3-1.5-3.7-1.4C418.8,678,417.5,678.5,416.5,679.3z"/>
	<path class="st0" d="M454.9,668.2h-13.2v7c0.7-0.8,1.5-1.4,2.4-1.7c1.1-0.4,2.2-0.7,3.4-0.7c1.9-0.1,3.7,0.4,5.3,1.4
		c1.3,0.9,2.4,2.2,3,3.6c0.6,1.5,0.9,3.1,0.9,4.8c0.1,2.8-0.8,5.5-2.7,7.5c-1.8,1.9-4.3,2.8-7.6,2.8c-2.7,0.1-5.3-0.7-7.4-2.3
		c-1.8-1.5-3-3.7-3.1-6.1h5.5c0.2,1,0.8,2,1.7,2.6c1,0.7,2.1,1,3.3,1c1.4,0.1,2.7-0.5,3.6-1.5c0.9-1.1,1.3-2.6,1.2-4
		c0.1-1.4-0.4-2.8-1.2-3.8c-1-0.9-2.3-1.4-3.6-1.3c-2-0.1-3.9,1.2-4.5,3.1h-5.5v-17.5h18.4L454.9,668.2z"/>
	<path class="st0" d="M169.6,703.2l-10.7,28.4h-4.3l-10.7-28.4h4l8.9,24.5l8.9-24.5H169.6z"/>
	<path class="st0" d="M193.9,721.8h-17.8c0,3.9,3.1,7,7,7c0.1,0,0.2,0,0.3,0c1.4,0.1,2.8-0.3,4-1.1c1.1-0.7,1.9-1.8,2.3-3h4
		c-0.6,2.1-1.8,3.9-3.6,5.2c-1.9,1.4-4.3,2.1-6.7,2c-2,0-3.9-0.4-5.7-1.4c-1.7-0.9-3-2.3-3.9-4c-1-1.9-1.5-4-1.4-6.1
		c0-2.1,0.4-4.2,1.4-6.1c0.9-1.7,2.2-3.1,3.9-4c1.8-1,3.8-1.4,5.8-1.4c2,0,3.9,0.4,5.6,1.4c1.6,0.9,2.9,2.2,3.8,3.8
		c0.9,1.7,1.3,3.5,1.3,5.4C194.1,720.3,194,721.1,193.9,721.8z M189.3,715.2c-0.6-1-1.5-1.8-2.5-2.3c-1.1-0.5-2.3-0.8-3.6-0.8
		c-1.8,0-3.5,0.6-4.8,1.8c-1.4,1.3-2.2,3.1-2.3,5h14.1C190.3,717.6,189.9,716.3,189.3,715.2L189.3,715.2z"/>
	<path class="st0" d="M205.4,710c1.4-0.7,2.9-1.1,4.4-1.1v3.8h-1c-4.2,0-6.2,2.3-6.2,6.8v12.1h-3.7v-22.3h3.7v3.6
		C203.3,711.7,204.2,710.6,205.4,710z"/>
	<path class="st0" d="M221.2,710.2c1.5-0.9,3.3-1.3,5-1.3c1.9,0,3.8,0.5,5.4,1.4c1.6,1,2.9,2.3,3.8,4c1,1.9,1.4,3.9,1.4,6
		c0,2.1-0.4,4.1-1.4,6c-0.9,1.7-2.2,3.1-3.8,4.1c-1.6,1-3.5,1.5-5.4,1.5c-1.8,0-3.5-0.4-5.1-1.3c-1.4-0.8-2.5-1.9-3.3-3.2v4.1h-3.7
		v-30.1h3.7v12C218.6,712.1,219.8,711,221.2,710.2z M232,716c-0.6-1.2-1.6-2.2-2.8-2.9c-1.2-0.7-2.5-1-3.8-1c-1.3,0-2.6,0.3-3.8,1
		c-1.2,0.7-2.1,1.7-2.8,2.9c-0.7,1.3-1,2.9-1,4.4c0,1.5,0.3,3.1,1,4.4c0.6,1.2,1.6,2.2,2.8,2.9c1.1,0.7,2.4,1,3.8,1
		c1.3,0,2.7-0.3,3.8-1c1.2-0.7,2.1-1.7,2.8-2.9c0.7-1.4,1-2.9,1-4.5C233,718.8,232.7,717.3,232,716z"/>
	<path class="st0" d="M261.9,721.8h-17.8c0,3.9,3.1,7,7,7c0.1,0,0.2,0,0.3,0c1.4,0.1,2.8-0.3,4-1.1c1.1-0.7,1.9-1.8,2.3-3h4
		c-0.6,2.1-1.8,3.9-3.6,5.2c-1.9,1.4-4.3,2.1-6.7,2c-2,0-3.9-0.4-5.7-1.4c-1.7-0.9-3-2.3-3.9-4c-1-1.9-1.5-4-1.4-6.1
		c0-2.1,0.4-4.2,1.4-6.1c0.9-1.7,2.2-3.1,3.9-4c1.8-1,3.8-1.4,5.8-1.4c2,0,3.9,0.4,5.6,1.4c1.6,0.9,2.9,2.2,3.8,3.8
		c0.9,1.7,1.3,3.5,1.3,5.4C262.1,720.3,262,721.1,261.9,721.8z M257.3,715.2c-0.6-1-1.5-1.8-2.5-2.3c-1.1-0.5-2.3-0.8-3.6-0.8
		c-1.8,0-3.5,0.6-4.8,1.8c-1.4,1.3-2.2,3.1-2.3,5h14.1C258.3,717.6,257.9,716.3,257.3,715.2L257.3,715.2z"/>
	<path class="st0" d="M284.4,711.4c1.7,1.6,2.5,4,2.5,7.1v13.2h-3.7V719c0.1-1.9-0.5-3.7-1.7-5.1c-1.2-1.2-2.9-1.9-4.6-1.8
		c-1.7-0.1-3.4,0.6-4.7,1.8c-1.2,1.5-1.9,3.4-1.7,5.3v12.3h-3.7v-22.3h3.7v3.2c0.7-1.1,1.8-2.1,3-2.7c1.3-0.6,2.7-0.9,4.2-0.9
		C280.3,708.8,282.7,709.7,284.4,711.4z"/>
	<path class="st0" d="M293,714.4c0.9-1.7,2.2-3.1,3.8-4c1.6-1,3.5-1.4,5.4-1.4c1.8,0,3.5,0.4,5.1,1.3c1.3,0.7,2.5,1.8,3.2,3.2v-4.1
		h3.8v22.3h-3.8v-4.2c-0.8,1.4-1.9,2.5-3.3,3.2c-1.5,0.9-3.3,1.3-5.1,1.3c-1.9,0-3.8-0.5-5.4-1.5c-1.6-1-2.9-2.4-3.8-4.1
		c-0.9-1.9-1.4-3.9-1.4-6C291.6,718.3,292.1,716.2,293,714.4z M309.5,716c-0.6-1.2-1.6-2.2-2.8-2.9c-2.4-1.3-5.2-1.3-7.6,0
		c-1.2,0.7-2.1,1.7-2.7,2.9c-0.7,1.4-1,2.9-1,4.4c0,1.5,0.3,3.1,1,4.5c0.6,1.2,1.6,2.2,2.7,2.9c2.4,1.3,5.2,1.3,7.6,0
		c1.2-0.7,2.1-1.7,2.8-2.9c0.7-1.4,1-2.9,1-4.4C310.6,718.9,310.2,717.4,309.5,716z"/>
	<path class="st0" d="M324.3,701.5v30.2h-3.7v-30.2H324.3z"/>
	<g>
		<path class="st2" d="M92.7,472L79,509.3h-9.1L56.3,472h8l10.2,29.6L84.7,472H92.7z"/>
		<path class="st2" d="M97.7,474.9c-0.9-0.8-1.3-1.9-1.3-3.1c0-1.2,0.4-2.3,1.3-3.1c0.9-0.8,2-1.3,3.3-1.3c1.3,0,2.4,0.4,3.3,1.3
			c0.9,0.8,1.3,1.9,1.3,3.1c0,1.2-0.4,2.3-1.3,3.1c-0.9,0.8-2,1.3-3.3,1.3C99.6,476.2,98.5,475.8,97.7,474.9z M104.6,479.7v29.6
			h-7.5v-29.6H104.6z"/>
		<path class="st2" d="M116.8,508.4c-1.9-0.9-3.4-2.1-4.6-3.5c-1.1-1.5-1.7-3.1-1.8-5h7.5c0.1,1.1,0.7,2.1,1.7,2.8
			c1,0.7,2.2,1.1,3.7,1.1c1.4,0,2.5-0.3,3.3-0.9c0.8-0.6,1.2-1.3,1.2-2.2c0-1-0.5-1.7-1.5-2.2c-1-0.5-2.5-1-4.7-1.6
			c-2.2-0.5-4-1.1-5.4-1.7c-1.4-0.6-2.6-1.4-3.6-2.6c-1-1.2-1.5-2.8-1.5-4.8c0-1.6,0.5-3.1,1.4-4.5c0.9-1.4,2.3-2.4,4.1-3.2
			c1.8-0.8,3.8-1.2,6.2-1.2c3.5,0,6.3,0.9,8.4,2.6c2.1,1.8,3.3,4.1,3.5,7.1h-7.2c-0.1-1.2-0.6-2.1-1.5-2.8c-0.9-0.7-2-1-3.5-1
			c-1.4,0-2.4,0.2-3.1,0.7c-0.7,0.5-1.1,1.2-1.1,2.1c0,1,0.5,1.8,1.5,2.3c1,0.5,2.5,1,4.6,1.6c2.1,0.5,3.9,1.1,5.3,1.7
			c1.4,0.6,2.6,1.5,3.6,2.6c1,1.2,1.5,2.8,1.6,4.7c0,1.7-0.5,3.2-1.4,4.6c-0.9,1.4-2.3,2.4-4.1,3.2c-1.8,0.8-3.8,1.1-6.2,1.1
			C120.9,509.7,118.7,509.3,116.8,508.4z"/>
		<path class="st2" d="M141.6,474.9c-0.9-0.8-1.3-1.9-1.3-3.1c0-1.2,0.4-2.3,1.3-3.1c0.9-0.8,2-1.3,3.3-1.3c1.3,0,2.4,0.4,3.3,1.3
			c0.9,0.8,1.3,1.9,1.3,3.1c0,1.2-0.4,2.3-1.3,3.1c-0.9,0.8-2,1.3-3.3,1.3C143.6,476.2,142.5,475.8,141.6,474.9z M148.6,479.7v29.6
			h-7.5v-29.6H148.6z"/>
		<path class="st2" d="M164.6,485.8v14.3c0,1,0.2,1.7,0.7,2.2c0.5,0.4,1.3,0.7,2.4,0.7h3.5v6.3h-4.7c-6.3,0-9.4-3.1-9.4-9.2v-14.2
			h-3.5v-6.1h3.5v-7.3h7.5v7.3h6.6v6.1H164.6z"/>
		<path class="st2" d="M176.5,486.4c1.2-2.3,2.8-4.1,4.9-5.3c2-1.2,4.3-1.9,6.9-1.9c2.2,0,4.1,0.4,5.8,1.3c1.7,0.9,3,2,4,3.4v-4.2
			h7.5v29.6H198v-4.3c-1,1.4-2.3,2.5-4,3.4c-1.7,0.9-3.6,1.4-5.8,1.4c-2.5,0-4.8-0.6-6.8-1.9c-2-1.3-3.7-3.1-4.9-5.4
			c-1.2-2.3-1.8-5-1.8-8C174.7,491.4,175.3,488.7,176.5,486.4z M196.9,489.8c-0.7-1.3-1.7-2.3-2.9-3c-1.2-0.7-2.5-1-3.9-1
			s-2.7,0.3-3.8,1c-1.2,0.7-2.1,1.7-2.9,3c-0.7,1.3-1.1,2.8-1.1,4.6c0,1.8,0.4,3.3,1.1,4.7c0.7,1.3,1.7,2.4,2.9,3.1
			c1.2,0.7,2.5,1.1,3.8,1.1c1.4,0,2.7-0.3,3.9-1c1.2-0.7,2.2-1.7,2.9-3c0.7-1.3,1.1-2.9,1.1-4.7C198,492.7,197.6,491.1,196.9,489.8z
			"/>
		<path class="st2" d="M237.7,482.6c2.2,2.2,3.3,5.3,3.3,9.3v17.3h-7.5v-16.3c0-2.3-0.6-4.2-1.8-5.4c-1.2-1.3-2.8-1.9-4.8-1.9
			c-2.1,0-3.7,0.6-4.9,1.9c-1.2,1.3-1.8,3.1-1.8,5.4v16.3h-7.5v-29.6h7.5v3.7c1-1.3,2.3-2.3,3.8-3c1.5-0.7,3.2-1.1,5.1-1.1
			C232.7,479.3,235.6,480.4,237.7,482.6z"/>
		<path class="st2" d="M253.5,507.8c-2.3-1.3-4.1-3.1-5.4-5.4c-1.3-2.3-1.9-5-1.9-8c0-3,0.7-5.7,2-8c1.3-2.3,3.2-4.1,5.5-5.4
			c2.3-1.3,4.9-1.9,7.7-1.9c2.8,0,5.4,0.6,7.7,1.9c2.3,1.3,4.1,3.1,5.5,5.4c1.3,2.3,2,5,2,8c0,3-0.7,5.7-2.1,8
			c-1.4,2.3-3.2,4.1-5.6,5.4c-2.3,1.3-4.9,1.9-7.8,1.9C258.4,509.7,255.8,509.1,253.5,507.8z M265,502.2c1.2-0.7,2.1-1.6,2.9-3
			c0.7-1.3,1.1-2.9,1.1-4.8c0-2.8-0.7-5-2.2-6.5c-1.5-1.5-3.3-2.3-5.4-2.3c-2.1,0-3.9,0.8-5.4,2.3c-1.4,1.5-2.2,3.7-2.2,6.5
			c0,2.8,0.7,5,2.1,6.5c1.4,1.5,3.2,2.3,5.3,2.3C262.6,503.2,263.8,502.9,265,502.2z"/>
		<path class="st2" d="M286.9,508.4c-1.9-0.9-3.4-2.1-4.6-3.5c-1.1-1.5-1.7-3.1-1.8-5h7.5c0.1,1.1,0.7,2.1,1.7,2.8
			c1,0.7,2.2,1.1,3.7,1.1c1.4,0,2.5-0.3,3.3-0.9c0.8-0.6,1.2-1.3,1.2-2.2c0-1-0.5-1.7-1.5-2.2c-1-0.5-2.5-1-4.7-1.6
			c-2.2-0.5-4-1.1-5.4-1.7c-1.4-0.6-2.6-1.4-3.6-2.6c-1-1.2-1.5-2.8-1.5-4.8c0-1.6,0.5-3.1,1.4-4.5c0.9-1.4,2.3-2.4,4.1-3.2
			c1.8-0.8,3.8-1.2,6.2-1.2c3.5,0,6.3,0.9,8.4,2.6c2.1,1.8,3.3,4.1,3.5,7.1h-7.2c-0.1-1.2-0.6-2.1-1.5-2.8c-0.9-0.7-2-1-3.5-1
			c-1.4,0-2.4,0.2-3.1,0.7c-0.7,0.5-1.1,1.2-1.1,2.1c0,1,0.5,1.8,1.5,2.3c1,0.5,2.5,1,4.6,1.6c2.1,0.5,3.9,1.1,5.3,1.7
			c1.4,0.6,2.6,1.5,3.6,2.6c1,1.2,1.5,2.8,1.6,4.7c0,1.7-0.5,3.2-1.4,4.6c-0.9,1.4-2.3,2.4-4.1,3.2c-1.8,0.8-3.8,1.1-6.2,1.1
			C291,509.7,288.9,509.3,286.9,508.4z"/>
	</g>
</g>
</svg>
