<?xml version="1.0" encoding="utf-8"?>
<!-- Generator: Adobe Illustrator 26.0.1, SVG Export Plug-In . SVG Version: 6.00 Build 0)  -->
<svg version="1.1" id="Capa_1" xmlns="http://www.w3.org/2000/svg" xmlns:xlink="http://www.w3.org/1999/xlink" x="0px" y="0px"
	 viewBox="0 0 1847.8 688.2" style="enable-background:new 0 0 1847.8 688.2;" xml:space="preserve">
<style type="text/css">
	.st0{fill:#272727;}
	.st1{fill:#DA2A2A;}
	.st2{fill:#FFFFFF;}
	.st3{fill:#272727;stroke:#000000;stroke-width:0.75;stroke-miterlimit:10;}
</style>
<g>
	<path class="st0" d="M110.7,102.9h-60v38.7h67.1v30.3H13.8V8.7h100.5V39H50.6v33.9h60V102.9z"/>
	<path class="st0" d="M169.8,53.5l11.6,19.9c3.4,6.1,6.5,11.9,9.7,17.7h0.5c3.1-6.5,6.1-12.3,9.2-18.2l10.4-19.4h39.9l-39,56.4
		l39.5,62H210l-11.9-21.3c-3.4-5.8-6.3-11.9-9.2-17.9h-0.7c-2.9,6.3-6.1,12.1-9,17.9l-11.1,21.3h-40.4l40.2-60.3l-39.2-58.1H169.8z"
		/>
	<path class="st0" d="M350.9,168.7c-6.5,3.1-18.9,5.6-32.9,5.6c-38.3,0-62.7-23.5-62.7-60.5c0-34.6,23.7-62.9,67.8-62.9
		c9.7,0,20.3,1.7,28.1,4.6l-5.8,27.4c-4.4-1.9-10.9-3.6-20.6-3.6c-19.4,0-32,13.8-31.7,33.2c0,21.5,14.5,33.2,32.4,33.2
		c8.7,0,15.5-1.5,21.1-3.9L350.9,168.7z"/>
	<path class="st0" d="M396.9,124.4c1,15.3,16.2,22.5,33.4,22.5c12.6,0,22.8-1.7,32.7-5.1l4.8,24.9c-12.1,5.1-26.9,7.5-42.9,7.5
		c-40.2,0-63.2-23.2-63.2-60.3c0-30,18.6-63.2,59.8-63.2c38.3,0,52.8,29.8,52.8,59.1c0,6.3-0.7,11.9-1.2,14.5H396.9z M440.2,99.3
		c0-9-3.9-24-20.8-24c-15.5,0-21.8,14.3-22.8,24H440.2z"/>
	<path class="st0" d="M496.4,0h36.8v171.9h-36.8V0z"/>
	<path class="st0" d="M591.3,124.4c1,15.3,16.2,22.5,33.4,22.5c12.6,0,22.8-1.7,32.7-5.1l4.8,24.9c-12.1,5.1-26.9,7.5-42.9,7.5
		c-40.2,0-63.2-23.2-63.2-60.3c0-30,18.6-63.2,59.8-63.2c38.3,0,52.8,29.8,52.8,59.1c0,6.3-0.7,11.9-1.2,14.5H591.3z M634.6,99.3
		c0-9-3.9-24-20.8-24c-15.5,0-21.8,14.3-22.8,24H634.6z"/>
	<path class="st0" d="M690.8,91.3c0-14.8-0.5-27.1-1-37.8h32l1.7,16.5h0.7c4.8-7.7,16.7-19.1,36.6-19.1c24.2,0,42.4,16.2,42.4,51.1
		v70h-36.8v-65.6c0-15.3-5.3-25.7-18.6-25.7c-10.2,0-16.2,7-18.9,13.8c-1,2.4-1.2,5.8-1.2,9.2v68.3h-36.8V91.3z"/>
	<path class="st0" d="M872.4,21.5v32h26.4v27.1h-26.4v42.9c0,14.3,3.6,20.8,14.5,20.8c5.1,0,7.5-0.2,10.9-1l0.2,27.8
		c-4.6,1.7-13.6,3.1-23.7,3.1c-11.9,0-21.8-4.1-27.8-10.2c-6.8-7-10.2-18.4-10.2-35.1V80.6h-15.7V53.5h15.7v-22L872.4,21.5z"/>
	<path class="st0" d="M947.2,124.4c1,15.3,16.2,22.5,33.4,22.5c12.6,0,22.8-1.7,32.7-5.1l4.8,24.9c-12.1,5.1-26.9,7.5-42.9,7.5
		c-40.2,0-63.2-23.2-63.2-60.3c0-30,18.6-63.2,59.8-63.2c38.3,0,52.8,29.8,52.8,59.1c0,6.3-0.7,11.9-1.2,14.5H947.2z M990.5,99.3
		c0-9-3.9-24-20.8-24c-15.5,0-21.8,14.3-22.8,24H990.5z"/>
	<path class="st0" d="M1046.4,139.9c6.8,4.1,20.8,8.7,31.7,8.7c11.1,0,15.7-3.6,15.7-9.7c0-6.3-3.6-9.2-17.2-13.8
		c-24.7-8.2-34.1-21.5-33.9-35.6c0-22.3,18.9-39,48.2-39c13.8,0,25.9,3.4,33.2,7l-6.3,25.4c-5.3-2.9-15.7-6.8-25.7-6.8
		c-9,0-14,3.6-14,9.4c0,5.8,4.6,8.7,19.1,13.8c22.5,7.7,31.7,19.4,32,36.6c0,22.3-17.2,38.5-51.1,38.5c-15.5,0-29.3-3.6-38.3-8.5
		L1046.4,139.9z"/>
	<path class="st0" d="M1200.7,93.2c0-15.5-0.5-28.6-1-39.7h32l1.7,16.5h0.5c8.7-12.3,22.3-19.1,39.5-19.1
		c25.9,0,49.1,22.5,49.1,60.3c0,43.1-27.4,63.4-53.7,63.4c-14.3,0-25.4-5.8-30.7-13.6h-0.5v58.8h-36.8V93.2z M1237.5,121.1
		c0,2.9,0.2,5.3,0.7,7.7c2.4,9.9,10.9,17.4,21.5,17.4c16,0,25.4-13.3,25.4-33.4c0-18.9-8.5-33.2-24.9-33.2c-10.4,0-19.6,7.7-22,18.6
		c-0.5,1.9-0.7,4.4-0.7,6.5V121.1z"/>
	<path class="st0" d="M1345.4,0h36.8v171.9h-36.8V0z"/>
	<path class="st0" d="M1510.5,143.3c0,11.1,0.5,22,1.9,28.6h-33.2l-2.2-11.9h-0.7c-7.7,9.4-19.9,14.5-33.9,14.5
		c-24,0-38.3-17.4-38.3-36.3c0-30.7,27.6-45.3,69.5-45.3v-1.5c0-6.5-3.4-15.5-21.5-15.5c-12.1,0-24.9,4.1-32.7,9l-6.8-23.7
		c8.2-4.6,24.5-10.7,46-10.7c39.5,0,51.8,23.2,51.8,51.3V143.3z M1475,116c-19.4,0-34.4,4.6-34.4,18.6c0,9.4,6.3,14,14.5,14
		c9,0,16.7-6.1,19.1-13.6c0.5-1.9,0.7-4.1,0.7-6.3V116z"/>
	<path class="st0" d="M1579.1,21.5v32h26.4v27.1h-26.4v42.9c0,14.3,3.6,20.8,14.5,20.8c5.1,0,7.5-0.2,10.9-1l0.2,27.8
		c-4.6,1.7-13.6,3.1-23.7,3.1c-11.9,0-21.8-4.1-27.8-10.2c-6.8-7-10.2-18.4-10.2-35.1V80.6h-15.7V53.5h15.7v-22L1579.1,21.5z"/>
	<path class="st0" d="M1742.5,111.4c0,43.3-30.7,63.2-62.5,63.2c-34.6,0-61.3-22.8-61.3-61c0-38.5,25.2-62.9,63.4-62.9
		C1718.3,50.6,1742.5,75.5,1742.5,111.4z M1656.8,112.6c0,20.3,8.5,35.6,24.2,35.6c14.5,0,23.5-14.3,23.5-35.8
		c0-17.4-6.8-35.3-23.5-35.3C1663.6,77,1656.8,95.1,1656.8,112.6z"/>
	<path class="st0" d="M1765,139.9c6.8,4.1,20.8,8.7,31.7,8.7c11.1,0,15.7-3.6,15.7-9.7c0-6.3-3.6-9.2-17.2-13.8
		c-24.7-8.2-34.1-21.5-33.9-35.6c0-22.3,18.9-39,48.2-39c13.8,0,25.9,3.4,33.2,7l-6.3,25.4c-5.3-2.9-15.7-6.8-25.7-6.8
		c-9,0-14,3.6-14,9.4c0,5.8,4.6,8.7,19.1,13.8c22.5,7.7,31.7,19.4,32,36.6c0,22.3-17.2,38.5-51.1,38.5c-15.5,0-29.3-3.6-38.3-8.5
		L1765,139.9z"/>
	<path class="st1" d="M6.6,382.6c1.1-1.1,2.1-1.8,3.2-1.8c1.4,0,2.1,0.7,2.5,1.8c0.7,6.8,10,18.2,27.5,18.2
		c25.3,0,56.4-26.1,89.6-60.3c-14.3,0-25,0-28.9,0c-11.4,0-17.5-16.4-19.3-24.3c-1.1-4.6,1.4-7.5,3.9-7.5c0.4,0,1.1,0,1.4,0.4
		c2.9,1.1,35,1.8,70,2.1c54.6-59.6,111.7-127.4,156.3-127.4c13.6,0,21.1,4.3,23.9,8.6c2.1,3.9,1.8,7.5,0.4,11.1
		c-1.4,3.2-78.9,162.4-93.2,208.1c-3.2,10.4-8.2,28.9-8.9,33.5c-0.7,3.6-1.8,4.6-5.4,4.6c-10.7-2.9-28.9-12.8-28.9-28.2
		c0-11.4,13.9-43.5,31.4-79.9c-16.1-0.4-36-0.4-56-0.7c-45,56.7-88.5,108.9-124.2,108.9C-8.4,449.7-0.6,391.9,6.6,382.6z
		 M199.3,311.6c21.8,0.4,40.3,0.4,47.8,0.4c20.7-41,43.2-82.4,53.9-102.1C268.9,227,233.9,268.1,199.3,311.6z"/>
	<path class="st1" d="M374.6,404.8c0-36.4,33.9-103.1,82.1-103.1c15.3,0,23.6,5.4,27.8,13.2c25-50.3,53.9-102.4,53.9-102.4
		c4.6-7.1,8.2-9.3,16.1-9.3c7.9,0,22.5,5.4,17.5,15c-1.8,3.6-83.9,165.2-83.9,190.2c0,0.7,0.4,1.1,1.1,1.1
		c6.1,0,25.7-21.4,45.7-43.5c2.9-2.9,5.4-4.3,7.9-4.3c5.4,0,8.2,5.7,3.9,11.1c-23.9,30.7-51.4,61-60.7,61c-7.9,0-36.8-10-37.1-28.6
		c-13.9,16.1-29.3,28.6-41,28.6C392,433.7,374.6,422.6,374.6,404.8z M414.5,409.4c29.3,0,76.4-87.8,48.5-87.8
		C429.5,321.6,397.4,409.4,414.5,409.4z"/>
	<path class="st1" d="M615.5,301.6c54.2,0,57.1,48.9,33.5,87.1c6.8-1.8,12.8-5.4,17.5-10.4c6.4-7.1,8.6-10,11.1-12.5
		c2.5-2.9,5.4-4.3,7.9-4.3c5,0,8.2,5.7,3.9,11.1c-14.6,19.6-27.1,32.8-53.9,33.9c-15.3,16.1-35.7,27.1-58.2,27.1
		c-41.8,0-47.8-27.1-47.8-42.8C529.5,359.8,564.8,301.6,615.5,301.6z M587.6,409.4c6.4,0,13.2-2.9,19.6-7.5
		c-16.8-7.1-29.6-21.4-31.4-43.2c-5.4,10.7-8.9,21.8-8.9,31.8C566.9,397.3,569.8,409.4,587.6,409.4z M621.5,321.6
		c-9.3,0-27.5,11.4-27.5,33.9c0,15.7,12.1,27.5,27.1,32.1C641.5,361.6,651.2,321.6,621.5,321.6z"/>
	<path class="st1" d="M665.4,405.5c0-27.1,35.3-83.2,45-98.1c2.5-3.9,5.7-5.7,9.3-5.7c7.5,0,25,7.1,18.2,17.8
		c-5,7.9-18.6,35.7-28.2,62.5c20.7-29.6,71-80.3,89.9-80.3c12.5,0,24.3,11.8,24.3,25c0,3.9-3.2,11.8-7.5,21.4
		c22.8-24.3,48.2-46.4,61-46.4c12.5,0,24.3,11.8,24.3,25c0,14.3-36.8,71.7-36.8,80.3c0,1.8,0.7,2.5,2.1,2.5
		c6.1,0,25.3-21.4,45.7-43.5c2.5-2.9,5.4-4.3,7.9-4.3c5,0,8.2,5.7,3.9,11.1c-24.3,30.7-51.4,61-61.4,61c-7.9,0-35.3-10.4-35.3-28.9
		c0-19.3,43.5-75.7,31.8-75.7c-10.7,0-48.5,46.4-68.9,76.7c-3.2,8.2-5,15.3-5,20.7c0,4.3-1.1,7.1-7.1,7.1
		c-5.4,0-28.6-10.4-28.6-28.9c0-19.3,43.5-75.7,31.8-75.7c-14.6,0-80.3,87.1-82.1,99.9c-0.4,3.6-1.8,4.6-5.4,4.6
		C683.6,430.8,665.4,420.8,665.4,405.5z"/>
	<path class="st1" d="M983.8,365.9c2.9-2.9,5.4-4.3,7.9-4.3c5.4,0,8.2,5.7,3.9,11.1c-23.9,30.7-51.4,61-60.7,61
		c-7.9,0-34.3-10.4-34.3-28.9c0-27.1,35-82.4,44.6-97.4c2.5-3.9,5.7-5.7,9.3-5.7c7.5,0,25,7.1,18.2,17.8
		c-8.9,14.3-43.2,89.9-34.6,89.9C944.2,409.4,963.8,388,983.8,365.9z M978.4,290.2c-7.5,0-21.4-7.1-18.9-14.3
		c1.1-3.2,10-28.6,15.3-38.9c2.5-4.6,6.8-6.4,11.8-6.4c12.5,0,28.9,12.5,23.9,20c-6.4,10-23.6,31.1-27.8,37.8
		C982,289.5,980.6,290.2,978.4,290.2z"/>
	<path class="st1" d="M978.4,390.8c0-31.1,35.3-89.2,72.1-89.2c43.9,0,41,46.4,19.3,58.2c-0.7,0.4-1.8,0.7-2.9,0.7
		c-5.4,0-12.8-6.8-8.6-9.3c9.3-6.1,16.1-29.6,2.9-29.6c-16.1,0-45.3,40.3-45.3,68.9c0,6.8,2.9,18.9,20.7,18.9
		c19.3,0,38.9-21.4,58.9-43.5c2.9-2.9,5.4-4.3,7.9-4.3c5.4,0,8.2,5.7,3.9,11.1c-23.9,30.7-51.4,61-81,61
		C984.5,433.7,978.4,406.5,978.4,390.8z"/>
	<path class="st1" d="M1166.9,365.9c2.9-2.9,5.4-4.3,7.9-4.3c5.4,0,8.2,5.7,3.9,11.1c-23.9,30.7-51.4,61-60.7,61
		c-7.9,0-34.3-10.4-34.3-28.9c0-27.1,35-82.4,44.6-97.4c2.5-3.9,5.7-5.7,9.3-5.7c7.5,0,25,7.1,18.2,17.8
		c-8.9,14.3-43.2,89.9-34.6,89.9C1127.3,409.4,1146.9,388,1166.9,365.9z M1161.5,290.2c-7.5,0-21.4-7.1-18.9-14.3
		c1.1-3.2,10-28.6,15.3-38.9c2.5-4.6,6.8-6.4,11.8-6.4c12.5,0,28.9,12.5,23.9,20c-6.4,10-23.6,31.1-27.8,37.8
		C1165.1,289.5,1163.7,290.2,1161.5,290.2z"/>
	<path class="st1" d="M1241.1,365.9c2.9-2.9,5.4-4.3,7.9-4.3c5.4,0,8.2,5.7,3.9,11.1c-23.9,30.7-51.4,61-60.7,61
		c-7.9,0-37.1-10.4-37.1-28.9c0-32.1,89.6-192.4,89.6-192.4c4.6-7.1,8.2-9.3,16.1-9.3s22.5,5.4,17.5,15
		c-1.8,3.6-83.9,165.2-83.9,190.2c0,0.7,0.4,1.1,1.1,1.1C1201.5,409.4,1221.1,388,1241.1,365.9z"/>
	<path class="st1" d="M1312.5,365.9c2.9-2.9,5.4-4.3,7.9-4.3c5.4,0,8.2,5.7,3.9,11.1c-23.9,30.7-51.4,61-60.7,61
		c-7.9,0-34.3-10.4-34.3-28.9c0-27.1,35-82.4,44.6-97.4c2.5-3.9,5.7-5.7,9.3-5.7c7.5,0,25,7.1,18.2,17.8
		c-8.9,14.3-43.2,89.9-34.6,89.9C1272.9,409.4,1292.5,388,1312.5,365.9z M1307.2,290.2c-7.5,0-21.4-7.1-18.9-14.3
		c1.1-3.2,10-28.6,15.3-38.9c2.5-4.6,6.8-6.4,11.8-6.4c12.5,0,28.9,12.5,23.9,20c-6.4,10-23.6,31.1-27.8,37.8
		C1310.7,289.5,1309.3,290.2,1307.2,290.2z"/>
	<path class="st1" d="M1393.2,301.6c54.2,0,57.1,48.9,33.5,87.1c6.8-1.8,12.8-5.4,17.5-10.4c6.4-7.1,8.6-10,11.1-12.5
		c2.5-2.9,5.4-4.3,7.9-4.3c5,0,8.2,5.7,3.9,11.1c-14.6,19.6-27.1,32.8-53.9,33.9c-15.3,16.1-35.7,27.1-58.2,27.1
		c-41.8,0-47.8-27.1-47.8-42.8C1307.2,359.8,1342.5,301.6,1393.2,301.6z M1365.3,409.4c6.4,0,13.2-2.9,19.6-7.5
		c-16.8-7.1-29.6-21.4-31.4-43.2c-5.4,10.7-8.9,21.8-8.9,31.8C1344.6,397.3,1347.5,409.4,1365.3,409.4z M1399.2,321.6
		c-9.3,0-27.5,11.4-27.5,33.9c0,15.7,12.1,27.5,27.1,32.1C1419.2,361.6,1428.9,321.6,1399.2,321.6z"/>
</g>
<path class="st2" d="M77.6,542.5h664.3c37.8,0,68.4,30.6,68.4,68.4v0c0,37.8-30.6,68.4-68.4,68.4H77.6c-37.8,0-68.4-30.6-68.4-68.4
	v0C9.2,573.1,39.8,542.5,77.6,542.5z"/>
<circle class="st0" cx="85.7" cy="611.8" r="43.4"/>
<path class="st2" d="M109.6,610.4v0.9h-3.2v-1.4l-0.5-3.8v-1.3c-0.2-0.8-0.5-1.5-0.8-2.2l0,0l-1.3-2.4l-0.9-1.3v-0.3
	c-1.5-2.1-3.3-3.9-5.4-5.3c-0.4-0.3-0.9-0.6-1.3-0.8c-0.7-0.5-1.5-1-2.4-1.3l0,0c-1.2-0.5-2.4-1-3.7-1.4c-1.6-0.4-3.2-0.6-4.8-0.6
	l0,0v-2.7c0-0.5,0-0.5,0.5-0.5h1.8c0.1-0.1,0.4-0.1,0.5,0c0,0,0,0,0,0l0,0l0,0c6.6,0.9,12.6,4.4,16.7,9.8l0,0l0.4,0.7
	c0.5,0.6,0.9,1.3,1.3,2c0.9,1.7,1.7,3.4,2.2,5.3c0.2,0.3,0.2,0.6,0,0.9c0.3,1.2,0.5,2.4,0.6,3.7v2L109.6,610.4z"/>
<path class="st2" d="M58.2,596.8v-1.2c1-1.6,2.2-3,3.7-4.3l1.2-0.9c0.5-0.3,1.1-0.5,1.7-0.7h4c1.8,0.6,3.2,1.9,4,3.7
	c0.3,0.6,0.5,1.3,0.6,2c0.5,1.5,0.9,3.3,1.3,4.9c0.3,1.6,0.1,3.2-0.6,4.6c-0.3,0.4-0.6,0.8-0.9,1.3l-1.8,1.5c-0.2,0.3-0.2,0.7,0,1
	l0.7,2c0.9,2.4,2.2,4.7,3.8,6.7c0.3,0.3,0.5,0.6,0.9,0.9c1.9,2.1,4.2,3.8,6.7,5.1l2.4,1c0.6,0.3,1.4,0.5,2,0.8
	c0.2,0.1,0.5,0.1,0.7,0l1.7-1.7c1.2-1.3,2.9-2,4.7-2c0.8,0.1,1.5,0.2,2.3,0.4l4,1.2h0.4c2.1,0.7,3.7,2.4,4.1,4.6
	c0.1,0.3,0.1,0.6,0,0.9v2.5c-0.3,1.1-0.9,2.1-1.8,2.9l-2.2,2.5c-0.2,0.4-0.6,0.7-1,0.8c-0.5,0.3-1.2,0.5-1.8,0.5h-3
	c-1,0.2-2.1,0.2-3.1,0c-1.2,0.1-2.3-0.2-3.4-0.7c-2.1-0.5-4.1-1.1-6-2H83l-1.2-0.5l-2.8-1.4c-1.3-0.7-2.5-1.5-3.7-2.4l-3.1-2.4
	l-2.9-2.7l-2.4-2.8l-0.6-0.8l-0.3-0.5c-0.3-0.5-1.6-2.4-2.4-3.7l-1.4-2.7l-0.5-0.9c-0.4-0.9-0.8-2-1.1-2.9c-0.5-1.2-0.9-2.5-1.2-3.7
	V607c0.2-0.5,0.2-1.1,0-1.6l-0.1-0.4c-0.5-1.1-0.8-2.2-1-3.4C58,600.1,58.5,598.4,58.2,596.8z"/>
<path class="st2" d="M83.9,598.9v-3.1h2.4c0.3-0.1,0.6-0.1,0.9,0c1.1,0.3,2.1,0.7,3.1,1.2c4.5,2.1,7.7,6.1,8.8,10.9l0,0
	c0.2,0.2,0.2,0.5,0,0.7l0,0v2.1c0,0.8,0,0.7-0.5,0.5h-2.4v-2.4c0.2-0.5,0.2-1,0-1.5c-0.6-2-1.8-3.9-3.4-5.3c-1.4-1.4-3.1-2.4-5-3
	c-0.5-0.1-0.9-0.1-1.4,0h-2.2L83.9,598.9z"/>
<path class="st2" d="M84.4,608.5c0,0-0.5,0-0.5-0.6v-2.7c0.9,0,1.7,0.2,2.5,0.5h1.1c0.5,0.4,1,0.9,1.4,1.4l0.8,1.3
	c0.3,0.6,0.5,1.3,0.5,2v0.6h-2.6c-0.5,0-0.5,0-0.5-0.5c-0.2-1.3-1.2-2.4-2.4-2.7l0,0L84.4,608.5z"/>
<path class="st3" d="M156.7,576c2.2-1.7,4.9-2.5,7.7-2.4c1.9,0,3.7,0.4,5.4,1.2c1.4,0.7,2.6,1.7,3.5,3.1c0.8,1.3,1.2,2.8,1.2,4.4
	c0,1.8-0.5,3.5-1.6,4.9c-1.1,1.4-2.6,2.3-4.3,2.7v0.2c1.9,0.4,3.5,1.4,4.8,2.9c1.2,1.6,1.8,3.6,1.8,5.7c0,1.7-0.4,3.3-1.2,4.7
	c-0.8,1.4-2.1,2.6-3.6,3.3c-1.8,0.8-3.8,1.2-5.8,1.2c-2.9,0.1-5.7-0.8-8-2.6c-2.1-1.8-3.4-4.5-3.5-7.3h4.1c0.2,1.7,1,3.4,2.3,4.5
	c1.4,1.2,3.3,1.8,5.2,1.8c1.8,0.1,3.6-0.5,4.9-1.7c1.1-1.2,1.7-2.7,1.7-4.4c0.2-2-0.7-3.8-2.3-5c-2.1-1.2-4.5-1.7-7-1.5h-1.1v-3.5
	h1.1c2.2,0.1,4.4-0.4,6.4-1.4c1.4-0.9,2.3-2.5,2.2-4.2c0.1-1.5-0.5-2.9-1.6-3.9c-1.3-1.1-2.9-1.6-4.5-1.5c-1.7-0.1-3.3,0.4-4.6,1.5
	c-1.2,1-1.9,2.4-2.1,4h-4.1C153.6,580,154.7,577.6,156.7,576z"/>
<path class="st3" d="M189.4,596.5c2.1-1.9,4-4,5.6-6.3c1.4-1.9,2.2-4.1,2.3-6.5c0.1-1.7-0.4-3.4-1.4-4.7c-1.2-1.2-2.9-1.9-4.6-1.7
	c-1.8-0.1-3.6,0.6-4.9,2c-1.2,1.5-1.9,3.3-1.9,5.2h-4.1c-0.1-3,1.1-5.9,3.1-8c4.4-3.7,10.7-3.8,15.2-0.2c1.9,1.9,2.9,4.5,2.8,7.2
	c0,2.7-0.8,5.2-2.3,7.5c-1.5,2.3-3.2,4.5-5.2,6.4c-1.9,1.8-4.4,4-7.4,6.4h15.9v3.5h-22.2v-3C184.1,601,187.2,598.5,189.4,596.5z"/>
<path class="st3" d="M209.8,578.1c1.7-3,4.8-4.5,9.1-4.5c4.3,0,7.3,1.5,9,4.5s2.6,7.1,2.6,12.4c0,5.3-0.9,9.6-2.6,12.6
	c-1.7,3-4.7,4.5-9,4.5s-7.3-1.5-9-4.5c-1.7-3-2.6-7.2-2.6-12.6C207.3,585.1,208.1,581.1,209.8,578.1z M225.8,583.7
	c-0.3-1.7-1-3.2-2.2-4.5c-1.3-1.2-3-1.8-4.7-1.7c-1.8-0.1-3.5,0.5-4.8,1.7c-1.1,1.3-1.9,2.8-2.2,4.5c-0.4,2.2-0.6,4.5-0.5,6.8
	c0,2.3,0.1,4.7,0.5,7c0.3,1.7,1,3.3,2.2,4.5c1.3,1.2,3,1.8,4.8,1.7c1.7,0.1,3.5-0.5,4.7-1.7c1.1-1.3,1.9-2.8,2.2-4.5
	c0.4-2.3,0.6-4.6,0.5-7C226.3,588.2,226.1,586,225.8,583.7z"/>
<path class="st3" d="M243.8,602.6c1.3,1,2.9,1.5,4.5,1.4c2.3,0.1,4.5-1,5.6-3c1.2-2,1.8-5.4,1.7-10.1c-0.7,1.4-1.8,2.6-3.2,3.2
	c-1.6,0.8-3.3,1.2-5,1.2c-1.9,0-3.8-0.4-5.5-1.3c-1.6-0.8-2.9-2.1-3.8-3.7c-1-1.8-1.4-3.8-1.4-5.9c-0.1-2.9,0.9-5.8,2.9-8
	c2.2-2.1,5.1-3.2,8.1-3c4.3,0,7.3,1.4,9.1,4.2c1.7,2.8,2.6,7,2.6,12.5c0.1,3.2-0.3,6.5-1,9.6c-0.5,2.3-1.7,4.3-3.5,5.8
	c-2,1.4-4.3,2.1-6.8,2c-2.7,0.2-5.3-0.8-7.3-2.5c-1.8-1.7-2.8-4-3-6.5h3.9C241.8,600.1,242.6,601.6,243.8,602.6z M253.2,589.9
	c1.4-1.4,2.1-3.3,2-5.2c0.1-2-0.6-4-1.9-5.6c-1.4-1.5-3.4-2.2-5.5-2.1c-1.9-0.1-3.8,0.7-5.1,2c-2.5,3.1-2.5,7.6,0,10.8
	c1.5,1.4,3.5,2.2,5.5,2C250,591.9,251.8,591.2,253.2,589.9L253.2,589.9z"/>
<path class="st3" d="M272.8,602.6c1.3,1,2.9,1.5,4.5,1.4c2.3,0.1,4.5-1,5.7-3c1.2-2,1.8-5.4,1.7-10.1c-0.7,1.4-1.8,2.6-3.2,3.2
	c-1.6,0.8-3.3,1.2-5,1.2c-1.9,0-3.8-0.4-5.5-1.3c-1.6-0.8-2.9-2.1-3.8-3.7c-1-1.8-1.4-3.8-1.4-5.9c-0.1-2.9,0.9-5.8,2.9-8
	c2.2-2.1,5.1-3.2,8.1-3c4.3,0,7.3,1.4,9.1,4.2c1.7,2.8,2.6,7,2.6,12.6c0.1,3.2-0.3,6.5-1,9.6c-0.5,2.3-1.7,4.3-3.5,5.8
	c-2,1.4-4.3,2.1-6.8,2c-2.7,0.2-5.3-0.8-7.3-2.5c-1.8-1.7-2.8-4-3-6.5h3.9C270.9,600.2,271.7,601.6,272.8,602.6z M282.3,589.9
	c1.4-1.4,2.1-3.3,2-5.2c0.1-2-0.6-4-1.9-5.6c-1.4-1.5-3.4-2.2-5.4-2.1c-1.9-0.1-3.8,0.7-5.2,2c-2.5,3.1-2.5,7.6,0,10.8
	c1.5,1.4,3.5,2.2,5.5,2C279.1,591.9,280.9,591.2,282.3,589.9L282.3,589.9z"/>
<path class="st3" d="M314.9,577.5l-12.8,30.1h-4.2l13-29.7H293v-3.6h21.9L314.9,577.5z"/>
<path class="st3" d="M318.5,600.1v-3.2l16.2-22.4h5v22h4.6v3.6h-4.6v7.4h-4.2v-7.4H318.5z M335.8,578.9l-12.4,17.6h12.4L335.8,578.9
	z"/>
<path class="st3" d="M356.1,602.6c1.3,1,2.9,1.5,4.5,1.4c2.3,0.1,4.5-1,5.6-3c1.2-2,1.8-5.4,1.7-10.1c-0.7,1.4-1.8,2.6-3.2,3.2
	c-1.6,0.8-3.3,1.2-5,1.2c-1.9,0-3.8-0.4-5.5-1.3c-1.6-0.8-2.9-2.1-3.8-3.7c-1-1.8-1.5-3.8-1.4-5.9c-0.1-2.9,0.9-5.8,2.9-8
	c2.2-2.1,5.1-3.2,8.1-3c4.3,0,7.3,1.4,9.1,4.2c1.7,2.8,2.6,7,2.6,12.5c0.1,3.2-0.3,6.5-1,9.6c-0.5,2.3-1.7,4.3-3.5,5.8
	c-2,1.4-4.3,2.1-6.8,2c-2.7,0.2-5.3-0.8-7.3-2.5c-1.8-1.7-2.8-4-3-6.5h3.9C354.2,600.1,354.9,601.6,356.1,602.6z M365.6,589.9
	c1.4-1.4,2.1-3.3,2-5.2c0.1-2-0.6-4-1.9-5.6c-1.4-1.5-3.4-2.2-5.4-2.1c-1.9-0.1-3.8,0.7-5.2,2c-1.3,1.5-2,3.4-1.9,5.4
	c-0.1,2,0.6,3.9,1.9,5.4c1.5,1.4,3.5,2.2,5.5,2C362.4,591.9,364.2,591.2,365.6,589.9L365.6,589.9z"/>
<path class="st3" d="M389.9,577c-2.5-0.1-4.8,1.1-6.1,3.2c-1.4,2.1-2,5.6-2,10.4c0.7-1.6,1.9-2.9,3.5-3.8c1.7-0.9,3.6-1.4,5.5-1.4
	c2.8-0.1,5.6,0.9,7.6,3c2,2.2,3,5.1,2.8,8.1c0,1.9-0.4,3.9-1.2,5.6c-0.8,1.7-2.1,3-3.7,4c-1.8,1-3.9,1.5-6,1.5
	c-2.6,0.2-5.3-0.6-7.4-2.1c-1.8-1.5-3.1-3.5-3.7-5.8c-0.8-3-1.1-6.2-1.1-9.3c0-11.3,3.9-16.9,11.8-16.9c5.2-0.4,9.7,3.5,10.1,8.6
	h-3.9C395.6,578.7,393.5,577,389.9,577z M386.2,589.8c-1.2,0.5-2.1,1.4-2.8,2.4c-0.8,1.2-1.1,2.6-1.1,4c-0.1,2.1,0.6,4.1,2,5.7
	c1.5,1.5,3.6,2.3,5.8,2.2c1.9,0.1,3.8-0.6,5.1-2c1.3-1.5,2-3.4,1.9-5.4c0.1-2-0.5-4.1-1.8-5.6c-1.4-1.4-3.4-2.2-5.4-2.1
	C388.7,589,387.4,589.3,386.2,589.8L386.2,589.8z"/>
<path class="st3" d="M409.5,578.1c1.7-3,4.7-4.5,9-4.5c4.3,0,7.3,1.5,9,4.5c1.7,3,2.6,7.1,2.6,12.4c0,5.3-0.9,9.6-2.6,12.6
	c-1.7,3-4.7,4.5-9,4.5s-7.3-1.5-9-4.5c-1.7-3-2.6-7.2-2.6-12.6C407,585.1,407.8,581.1,409.5,578.1z M425.5,583.7
	c-0.3-1.7-1-3.2-2.2-4.5c-2.8-2.3-6.7-2.3-9.5,0c-1.2,1.3-1.9,2.8-2.2,4.5c-0.4,2.2-0.6,4.5-0.5,6.8c0,2.3,0.1,4.7,0.5,7
	c0.3,1.7,1,3.3,2.2,4.5c2.8,2.3,6.7,2.3,9.5,0c1.2-1.3,1.9-2.8,2.2-4.5c0.4-2.3,0.6-4.6,0.5-7C426,588.2,425.9,586,425.5,583.7z"/>
<path class="st3" d="M457.2,588.9v3.5h-18.4v-3.5H457.2z"/>
<path class="st3" d="M468.4,576c2.2-1.7,4.9-2.5,7.7-2.4c1.9,0,3.7,0.4,5.4,1.2c1.4,0.7,2.6,1.7,3.5,3.1c0.8,1.3,1.2,2.8,1.2,4.4
	c0,1.8-0.5,3.5-1.6,4.9c-1.1,1.4-2.6,2.3-4.3,2.7v0.2c1.9,0.4,3.5,1.4,4.8,2.9c1.2,1.6,1.8,3.6,1.8,5.7c0,1.7-0.4,3.3-1.2,4.7
	c-0.8,1.4-2.1,2.6-3.6,3.3c-1.8,0.8-3.8,1.2-5.8,1.2c-2.9,0.1-5.7-0.8-8-2.6c-2.1-1.8-3.4-4.5-3.5-7.3h4.1c0.2,1.7,1,3.4,2.3,4.5
	c1.4,1.2,3.3,1.8,5.2,1.8c1.8,0.1,3.6-0.5,4.9-1.7c1.1-1.2,1.7-2.7,1.7-4.4c0.2-2-0.7-3.8-2.3-5c-2.1-1.2-4.5-1.7-7-1.5h-1.1v-3.5
	h1.1c2.2,0.1,4.4-0.4,6.4-1.4c1.4-0.9,2.3-2.5,2.2-4.2c0.1-1.5-0.5-2.9-1.6-3.9c-1.3-1.1-2.9-1.6-4.5-1.5c-1.7-0.1-3.3,0.4-4.6,1.5
	c-1.2,1-1.9,2.4-2.1,4h-4.1C465.2,580,466.4,577.6,468.4,576z"/>
<path class="st3" d="M491.3,578v-3.8h8.7v33.4h-4.2V578H491.3z"/>
<path class="st3" d="M506.2,600.1v-3.2l16.2-22.4h5v22h4.6v3.6h-4.6v7.4h-4.2v-7.4H506.2z M523.4,578.9L511,596.5h12.4V578.9z"/>
<path class="st3" d="M544.8,596.5c2.1-1.9,4-4,5.6-6.3c1.4-1.9,2.2-4.1,2.3-6.5c0.1-1.7-0.4-3.4-1.5-4.7c-1.2-1.2-2.9-1.9-4.6-1.7
	c-1.8-0.1-3.6,0.6-4.9,2c-1.2,1.5-1.9,3.3-1.9,5.2h-4.1c-0.1-3,1.1-5.9,3.1-8c4.4-3.7,10.7-3.8,15.2-0.2c1.9,1.9,2.9,4.5,2.8,7.2
	c0,2.7-0.8,5.2-2.3,7.5c-1.5,2.3-3.2,4.5-5.2,6.4c-1.9,1.8-4.4,4-7.4,6.4h15.9v3.5h-22.2v-3C539.6,601,542.6,598.5,544.8,596.5z"/>
<path class="st3" d="M561.7,600.1v-3.2l16.2-22.4h5v22h4.6v3.6H583v7.4h-4.2v-7.4H561.7z M579,578.9l-12.4,17.6H579V578.9z"/>
<path class="st3" d="M593.9,587.2c-0.9-1.4-1.4-3-1.4-4.7c0-1.6,0.4-3.1,1.2-4.5c0.9-1.4,2.2-2.5,3.7-3.2c3.8-1.6,8.1-1.6,12,0
	c1.5,0.7,2.8,1.8,3.7,3.2c0.8,1.3,1.3,2.9,1.3,4.5c0,1.7-0.5,3.3-1.4,4.6c-1,1.4-2.3,2.4-3.9,3c1.8,0.5,3.4,1.6,4.5,3.1
	c1.1,1.5,1.7,3.4,1.7,5.3c0,1.9-0.5,3.7-1.5,5.2c-1,1.5-2.5,2.7-4.2,3.5c-2,0.8-4.1,1.2-6.2,1.2c-2.1,0.1-4.2-0.3-6.2-1.2
	c-1.7-0.7-3.1-1.9-4.1-3.5c-1-1.6-1.5-3.4-1.5-5.2c0-1.9,0.5-3.8,1.7-5.3c1.1-1.5,2.7-2.6,4.5-3.1
	C596.3,589.6,594.9,588.6,593.9,587.2z M597.8,593.6c-1.5,1.1-2.3,2.9-2.2,4.8c-0.1,1.8,0.7,3.6,2.1,4.8c1.6,1.3,3.6,1.9,5.7,1.8
	c2,0.1,4-0.5,5.6-1.8c1.4-1.2,2.1-2.9,2.1-4.8c0.1-1.8-0.7-3.6-2.1-4.7c-1.6-1.2-3.6-1.7-5.6-1.6C601.5,592,599.5,592.5,597.8,593.6
	L597.8,593.6z M608.5,578.7c-3.1-2-7-2-10.1,0c-1.3,1.1-1.9,2.7-1.8,4.4c-0.1,1.6,0.7,3.1,1.9,4.2c3,2.1,7,2.1,10,0
	c1.3-1,2-2.6,1.9-4.2C610.5,581.4,609.8,579.8,608.5,578.7L608.5,578.7z"/>
<path class="st3" d="M624.1,576c2.2-1.7,4.9-2.5,7.7-2.4c1.9,0,3.7,0.4,5.4,1.2c2.9,1.3,4.7,4.3,4.6,7.5c0,1.8-0.5,3.5-1.6,4.9
	c-1.1,1.4-2.6,2.3-4.3,2.7v0.2c1.9,0.4,3.5,1.4,4.8,2.9c1.2,1.6,1.8,3.6,1.8,5.7c0,1.7-0.4,3.3-1.2,4.7c-0.9,1.4-2.1,2.6-3.6,3.2
	c-1.8,0.8-3.8,1.2-5.8,1.2c-2.9,0.1-5.7-0.8-8-2.6c-2.1-1.8-3.4-4.5-3.5-7.3h4.1c0.2,1.7,1,3.4,2.3,4.5c1.4,1.2,3.3,1.8,5.2,1.8
	c1.8,0.1,3.6-0.5,4.9-1.7c1.1-1.2,1.7-2.7,1.7-4.4c0.2-2-0.7-3.8-2.3-5c-1.5-1-3.9-1.5-7-1.5h-1.1v-3.5h1.1c2.2,0.1,4.4-0.4,6.4-1.4
	c1.4-0.9,2.3-2.5,2.2-4.2c0.1-1.5-0.5-2.9-1.6-3.9c-1.3-1.1-2.9-1.6-4.5-1.5c-1.7-0.1-3.3,0.4-4.6,1.5c-1.2,1-1.9,2.4-2.1,4h-4.1
	C620.9,580,622.1,577.6,624.1,576z"/>
<path class="st3" d="M646.9,578v-3.8h8.7v33.4h-4.2V578H646.9z"/>
<path class="st3" d="M671.5,596.5c2.1-1.9,4-4,5.6-6.3c1.4-1.9,2.2-4.1,2.3-6.5c0.1-1.7-0.4-3.4-1.5-4.7c-1.2-1.2-2.9-1.9-4.6-1.7
	c-1.8-0.1-3.6,0.6-4.9,2c-1.2,1.5-1.9,3.3-1.9,5.2h-4.1c-0.1-3,1.1-5.9,3.1-8c4.4-3.7,10.7-3.8,15.2-0.2c1.9,1.9,2.9,4.5,2.8,7.2
	c0,2.7-0.8,5.2-2.3,7.5c-1.5,2.3-3.2,4.5-5.2,6.4c-1.9,1.8-4.4,4-7.4,6.4h15.9v3.5h-22.2v-3C666.2,601,669.3,598.5,671.5,596.5z"/>
<path class="st3" d="M701.6,577c-2.5-0.1-4.8,1.1-6.1,3.2c-1.4,2.1-2,5.6-2,10.4c0.7-1.6,1.9-2.9,3.5-3.8c1.7-0.9,3.6-1.4,5.5-1.4
	c2.8-0.1,5.6,0.9,7.6,3c2,2.2,3,5.1,2.8,8.1c0,1.9-0.4,3.9-1.2,5.6c-0.8,1.7-2.1,3-3.7,4c-1.8,1-3.9,1.5-6,1.5
	c-2.6,0.2-5.3-0.6-7.4-2.1c-1.8-1.5-3.1-3.5-3.7-5.8c-0.8-3-1.1-6.2-1.1-9.3c0-11.3,3.9-16.9,11.8-16.9c5.2-0.4,9.7,3.5,10.1,8.6
	h-3.9C707.3,578.7,705.2,577,701.6,577z M697.9,589.8c-1.2,0.5-2.1,1.4-2.8,2.4c-0.7,1.2-1.1,2.6-1.1,4c-0.1,2.1,0.6,4.1,2,5.7
	c1.5,1.5,3.6,2.3,5.8,2.2c1.9,0.1,3.8-0.6,5.1-2c1.3-1.5,2-3.4,1.9-5.4c0.1-2-0.5-4.1-1.9-5.6c-1.4-1.4-3.4-2.2-5.4-2.1
	C700.4,589,699.1,589.3,697.9,589.8L697.9,589.8z"/>
<path class="st0" d="M177.5,626h-16v10.4c0.8-1.1,1.9-1.9,3.1-2.4c1.4-0.6,2.9-1,4.4-0.9c2.2-0.1,4.3,0.5,6.2,1.6
	c1.5,1,2.7,2.4,3.4,4.1c1.4,3.6,1.4,7.6-0.2,11.2c-0.8,1.7-2.1,3.2-3.8,4.1c-1.9,1.1-4.1,1.6-6.3,1.5c-2.8,0.1-5.6-0.7-7.8-2.5
	c-2-1.7-3.3-4-3.6-6.6h4.1c0.3,1.6,1.2,3.1,2.5,4.1c1.4,1,3.1,1.5,4.8,1.5c2,0.1,4-0.7,5.4-2.2c1.3-1.6,1.9-3.7,1.8-5.7
	c0.1-2-0.5-4-1.8-5.5c-1.4-1.4-3.4-2.1-5.4-1.9c-1.5,0-3,0.4-4.2,1.2c-1.2,0.8-2.1,1.9-2.6,3.2h-3.9v-18.7h19.9L177.5,626z"/>
<path class="st0" d="M184.1,626.2v-3.8h8.6v33h-4.2v-29.2H184.1z"/>
<path class="st0" d="M220,625.7l-12.7,29.8h-4.2l12.9-29.4h-17.6v-3.6H220V625.7z"/>
<path class="st0" d="M227.2,626.3c1.7-2.9,4.6-4.4,8.9-4.4s7.2,1.5,8.9,4.4c1.7,2.9,2.6,7,2.6,12.2c0,5.3-0.8,9.5-2.6,12.4
	c-1.7,2.9-4.6,4.4-8.9,4.4s-7.2-1.5-8.9-4.4c-1.7-3-2.5-7.1-2.5-12.4S225.5,629.3,227.2,626.3z M243,631.9c-0.3-1.7-1-3.2-2.1-4.5
	c-2.7-2.3-6.7-2.3-9.4,0c-1.1,1.2-1.9,2.8-2.1,4.5c-0.4,2.2-0.6,4.5-0.5,6.7c0,2.3,0.1,4.7,0.5,7c0.3,1.7,1,3.2,2.1,4.5
	c2.7,2.2,6.7,2.2,9.4,0c1.1-1.2,1.9-2.8,2.1-4.5c0.4-2.3,0.6-4.6,0.5-7C243.6,636.3,243.4,634.1,243,631.9L243,631.9z"/>
<path class="st0" d="M252.2,626.2v-3.8h8.6v33h-4.2v-29.2H252.2z"/>
<path class="st0" d="M288.3,625.7l-12.7,29.8h-4.2l12.9-29.4h-17.6v-3.6h21.6V625.7z"/>
<path class="st0" d="M296,624.2c2.2-1.7,4.9-2.5,7.6-2.4c1.9,0,3.7,0.4,5.4,1.2c2.9,1.3,4.7,4.2,4.6,7.4c0,1.8-0.5,3.5-1.6,4.9
	c-1.1,1.3-2.5,2.3-4.2,2.7v0.2c1.8,0.4,3.5,1.4,4.7,2.9c1.2,1.6,1.8,3.6,1.7,5.6c0,1.6-0.4,3.2-1.2,4.6c-0.9,1.4-2.2,2.6-3.7,3.3
	c-1.8,0.8-3.7,1.2-5.7,1.2c-2.9,0.1-5.7-0.8-7.9-2.5c-2.1-1.8-3.4-4.4-3.5-7.2h4c0.2,1.7,1,3.3,2.2,4.5c1.4,1.2,3.2,1.8,5.1,1.7
	c1.8,0.1,3.5-0.5,4.9-1.7c1.1-1.2,1.7-2.7,1.7-4.3c0.2-1.9-0.7-3.8-2.3-4.9c-2.1-1.1-4.5-1.7-6.9-1.5h-1v-3.5h1.1
	c2.2,0.1,4.4-0.4,6.3-1.4c1.4-0.9,2.2-2.5,2.1-4.2c0.1-1.5-0.5-2.9-1.6-3.9c-1.3-1-2.9-1.6-4.5-1.5c-1.6-0.1-3.3,0.4-4.6,1.5
	c-1.2,1-1.9,2.4-2.1,3.9h-4.1C292.8,628.1,294,625.8,296,624.2z"/>
<path class="st0" d="M343.1,637v3.5h-18.2V637H343.1z"/>
<path class="st0" d="M367.8,625.2c-2.4-0.1-4.8,1.1-6.1,3.1c-1.3,2.1-2,5.5-2,10.3c0.7-1.6,1.9-2.9,3.5-3.7c1.7-0.9,3.5-1.4,5.5-1.4
	c2.8-0.1,5.5,0.9,7.5,2.9c2,2.2,3,5.1,2.8,8.1c0,1.9-0.4,3.8-1.2,5.6c-0.8,1.6-2.1,3-3.7,3.9c-1.8,1-3.8,1.5-5.9,1.5
	c-2.6,0.2-5.2-0.6-7.4-2.1c-1.8-1.5-3.1-3.5-3.7-5.8c-0.8-3-1.1-6.1-1.1-9.1c0-11.2,3.9-16.8,11.7-16.8c5.1-0.4,9.6,3.4,10,8.5H374
	C373.4,626.9,371.3,625.2,367.8,625.2z M364.1,637.9c-1.1,0.5-2.1,1.4-2.8,2.4c-0.7,1.2-1.1,2.6-1.1,4c-0.1,2.1,0.6,4.1,2,5.6
	c1.5,1.5,3.6,2.3,5.8,2.2c1.9,0.1,3.8-0.6,5.1-2c1.3-1.5,2-3.4,1.9-5.4c0.1-2-0.5-4-1.8-5.6c-1.4-1.4-3.4-2.2-5.3-2
	C366.6,637.1,365.3,637.4,364.1,637.9L364.1,637.9z"/>
<path class="st0" d="M404.9,625.7l-12.7,29.8H388l12.9-29.4h-17.6v-3.6h21.6V625.7z"/>
<path class="st0" d="M429.9,625.7l-12.7,29.8H413l12.9-29.4h-17.6v-3.6h21.6V625.7z"/>
<path class="st0" d="M455.5,626h-16v10.4c0.8-1.1,1.9-1.9,3.1-2.4c1.4-0.6,2.9-1,4.4-0.9c2.2-0.1,4.3,0.5,6.2,1.6
	c1.5,1,2.7,2.4,3.4,4.1c1.4,3.6,1.4,7.6-0.2,11.2c-0.8,1.7-2.1,3.2-3.8,4.1c-1.9,1.1-4.1,1.6-6.3,1.5c-2.8,0.1-5.6-0.7-7.8-2.5
	c-2-1.7-3.3-4-3.6-6.6h4.1c0.3,1.6,1.2,3.1,2.5,4.1c1.4,1,3.1,1.5,4.8,1.5c2,0.1,4-0.7,5.4-2.2c1.3-1.6,1.9-3.7,1.8-5.7
	c0.1-2-0.5-4-1.8-5.5c-1.4-1.4-3.4-2.1-5.4-1.9c-1.5,0-3,0.4-4.2,1.2c-1.2,0.8-2.1,1.9-2.6,3.2h-3.9v-18.7h19.8V626z"/>
<path class="st0" d="M465.7,626.3c1.7-2.9,4.6-4.4,8.9-4.4s7.2,1.5,8.9,4.4c1.7,2.9,2.6,7,2.6,12.2c0,5.3-0.9,9.5-2.6,12.4
	c-1.7,2.9-4.6,4.4-8.9,4.4c-4.3,0-7.2-1.5-8.9-4.4c-1.7-3-2.6-7.1-2.6-12.4C463.1,633.3,464,629.3,465.7,626.3z M481.5,631.9
	c-0.3-1.7-1-3.2-2.1-4.5c-2.7-2.3-6.7-2.3-9.4,0c-1.1,1.2-1.9,2.8-2.1,4.5c-0.4,2.2-0.6,4.5-0.5,6.7c0,2.3,0.1,4.7,0.5,7
	c0.3,1.7,1,3.2,2.1,4.5c2.7,2.2,6.7,2.2,9.4,0c1.1-1.2,1.9-2.8,2.1-4.5c0.4-2.3,0.6-4.6,0.5-7C482,636.3,481.9,634.1,481.5,631.9z"
	/>
<path class="st0" d="M500.4,644.5c2.1-1.9,3.9-4,5.5-6.3c1.4-1.9,2.2-4.1,2.3-6.4c0.1-1.7-0.4-3.3-1.4-4.6c-1.2-1.2-2.9-1.9-4.6-1.7
	c-1.8-0.1-3.6,0.6-4.8,1.9c-1.2,1.5-1.9,3.3-1.9,5.2h-4c-0.1-2.9,1.1-5.8,3.1-7.9c4.3-3.6,10.6-3.7,15-0.2c1.9,1.9,2.9,4.5,2.8,7.1
	c0,2.6-0.9,5.2-2.3,7.4c-1.4,2.3-3.2,4.4-5.1,6.3c-1.9,1.8-4.4,3.9-7.3,6.3h15.7v3.5h-21.9v-3C495.2,649,498.2,646.5,500.4,644.5z"
	/>
<path class="st0" d="M539.1,626h-16v10.4c0.8-1.1,1.9-1.9,3.1-2.4c1.4-0.6,2.9-1,4.4-0.9c2.2-0.1,4.3,0.5,6.2,1.6
	c1.5,1,2.7,2.4,3.4,4.1c1.4,3.6,1.4,7.6-0.2,11.2c-0.8,1.7-2.1,3.1-3.8,4.1c-1.9,1.1-4.1,1.6-6.3,1.5c-2.8,0.1-5.6-0.7-7.8-2.5
	c-2-1.7-3.3-4-3.6-6.6h4.1c0.3,1.6,1.2,3.1,2.5,4.1c1.4,1,3.1,1.5,4.8,1.5c2,0.1,4.1-0.7,5.4-2.2c1.3-1.6,1.9-3.7,1.8-5.7
	c0.1-2-0.5-4-1.8-5.6c-1.4-1.4-3.4-2.1-5.4-1.9c-1.5,0-3,0.4-4.2,1.2c-1.2,0.8-2.1,1.9-2.6,3.2h-3.9v-18.6h19.9L539.1,626z"/>
</svg>
